<svg xmlns="http://www.w3.org/2000/svg" xmlns:xlink="http://www.w3.org/1999/xlink" viewBox="0 0 1000 1000"><defs><style>.cls-1{mask:url(#mask);filter:url(#luminosity-noclip-5);}.cls-12,.cls-2,.cls-20,.cls-38,.cls-4,.cls-41,.cls-51,.cls-57,.cls-6,.cls-61,.cls-77,.cls-8,.cls-96{mix-blend-mode:multiply;}.cls-2{fill:url(#linear-gradient);}.cls-3{mask:url(#mask-2);filter:url(#luminosity-noclip-6);}.cls-4{fill:url(#linear-gradient-2);}.cls-5{mask:url(#mask-3);filter:url(#luminosity-noclip-7);}.cls-6{fill:url(#linear-gradient-3);}.cls-7{mask:url(#mask-4);filter:url(#luminosity-noclip-8);}.cls-8{fill:url(#linear-gradient-4);}.cls-9{isolation:isolate;}.cls-10{fill:url(#linear-gradient-5);}.cls-11{fill:#422313;}.cls-103,.cls-12,.cls-19,.cls-25{opacity:0.4;}.cls-13{fill:url(#linear-gradient-6);}.cls-14,.cls-25{fill:#f5f5f5;}.cls-15{fill:url(#linear-gradient-7);}.cls-16{fill:url(#linear-gradient-8);}.cls-17{fill:url(#linear-gradient-9);}.cls-18{fill:url(#linear-gradient-10);}.cls-105,.cls-106,.cls-107,.cls-108,.cls-109,.cls-110,.cls-111,.cls-112,.cls-113,.cls-114,.cls-115,.cls-116,.cls-117,.cls-118,.cls-119,.cls-19,.cls-25,.cls-43,.cls-44,.cls-45,.cls-46,.cls-69,.cls-70,.cls-71,.cls-72,.cls-73,.cls-74,.cls-83,.cls-84,.cls-85,.cls-86,.cls-87,.cls-88,.cls-92,.cls-99{mix-blend-mode:screen;}.cls-21{fill:url(#linear-gradient-11);}.cls-22{fill:url(#linear-gradient-12);}.cls-23{fill:url(#linear-gradient-13);}.cls-24{fill:url(#linear-gradient-14);}.cls-26{fill:url(#linear-gradient-15);}.cls-27{fill:url(#linear-gradient-16);}.cls-28{fill:url(#linear-gradient-17);}.cls-29{fill:url(#linear-gradient-18);}.cls-30{fill:url(#linear-gradient-19);}.cls-31{fill:url(#linear-gradient-20);}.cls-32{fill:url(#linear-gradient-21);}.cls-33{fill:url(#linear-gradient-22);}.cls-34{fill:url(#linear-gradient-23);}.cls-35{fill:url(#linear-gradient-24);}.cls-36{fill:url(#radial-gradient);}.cls-120,.cls-37{fill:#d77c4f;}.cls-38,.cls-48,.cls-92{opacity:0.7;}.cls-39{fill:url(#radial-gradient-2);}.cls-40{fill:url(#radial-gradient-3);}.cls-41{opacity:0.9;}.cls-42{fill:url(#radial-gradient-4);}.cls-43{fill:url(#radial-gradient-5);}.cls-44{fill:url(#radial-gradient-6);}.cls-45{fill:url(#radial-gradient-7);}.cls-46{fill:url(#radial-gradient-8);}.cls-47{fill:url(#radial-gradient-9);}.cls-49{fill:url(#radial-gradient-10);}.cls-100,.cls-101,.cls-102,.cls-105,.cls-110,.cls-111,.cls-112,.cls-113,.cls-114,.cls-115,.cls-116,.cls-117,.cls-118,.cls-119,.cls-120,.cls-50,.cls-51,.cls-57,.cls-99{opacity:0.6;}.cls-50{fill:url(#radial-gradient-11);}.cls-52{fill:url(#radial-gradient-12);}.cls-53{fill:url(#radial-gradient-13);}.cls-54{fill:#bc3b18;}.cls-55{fill:url(#radial-gradient-14);}.cls-56{fill:url(#radial-gradient-15);}.cls-57{fill:url(#radial-gradient-16);}.cls-58{fill:#5d2e15;}.cls-59{fill:url(#radial-gradient-17);}.cls-60{fill:url(#radial-gradient-18);}.cls-61{fill:url(#radial-gradient-19);}.cls-62{fill:url(#radial-gradient-20);}.cls-63{fill:#000100;}.cls-64{mask:url(#mask-5);}.cls-65{fill:url(#linear-gradient-25);}.cls-66{mask:url(#mask-6);}.cls-67{fill:url(#linear-gradient-26);}.cls-68{fill:#fff;}.cls-69{fill:url(#radial-gradient-21);}.cls-70{fill:url(#radial-gradient-22);}.cls-71{fill:url(#radial-gradient-23);}.cls-72{fill:url(#radial-gradient-24);}.cls-73{fill:url(#radial-gradient-25);}.cls-74{fill:url(#radial-gradient-26);}.cls-75{fill:url(#radial-gradient-27);}.cls-76{fill:url(#radial-gradient-28);}.cls-77{fill:url(#radial-gradient-29);}.cls-78{fill:url(#radial-gradient-30);}.cls-79{mask:url(#mask-7);}.cls-80{fill:url(#linear-gradient-27);}.cls-81{mask:url(#mask-8);}.cls-82{fill:url(#linear-gradient-28);}.cls-83{fill:url(#radial-gradient-31);}.cls-84{fill:url(#radial-gradient-32);}.cls-85{fill:url(#radial-gradient-33);}.cls-86{fill:url(#radial-gradient-34);}.cls-87{fill:url(#radial-gradient-35);}.cls-88{fill:url(#radial-gradient-36);}.cls-89{fill:url(#radial-gradient-37);}.cls-90{fill:#d17113;}.cls-91{fill:#fab31f;}.cls-92{fill:#f4dd89;}.cls-93{fill:#fcf2d5;}.cls-94{fill:url(#radial-gradient-38);}.cls-95{fill:#b71824;}.cls-96{opacity:0.5;}.cls-97{fill:url(#radial-gradient-39);}.cls-98{fill:url(#radial-gradient-40);}.cls-99{fill:#ffdfd0;}.cls-100{fill:url(#radial-gradient-41);}.cls-101{fill:url(#radial-gradient-42);}.cls-102{fill:url(#radial-gradient-43);}.cls-104{fill:url(#radial-gradient-44);}.cls-105{fill:url(#radial-gradient-45);}.cls-106{fill:url(#radial-gradient-46);}.cls-107{fill:url(#radial-gradient-47);}.cls-108{fill:url(#radial-gradient-48);}.cls-109{fill:url(#radial-gradient-49);}.cls-110{fill:url(#radial-gradient-50);}.cls-111{fill:url(#radial-gradient-51);}.cls-112{fill:url(#radial-gradient-52);}.cls-113{fill:url(#radial-gradient-53);}.cls-114{fill:url(#radial-gradient-54);}.cls-115{fill:url(#radial-gradient-55);}.cls-116{fill:url(#radial-gradient-56);}.cls-117{fill:url(#radial-gradient-57);}.cls-118{fill:url(#radial-gradient-58);}.cls-119{fill:url(#radial-gradient-59);}.cls-121{filter:url(#luminosity-noclip-4);}.cls-122{filter:url(#luminosity-noclip-3);}.cls-123{filter:url(#luminosity-noclip-2);}.cls-124{filter:url(#luminosity-noclip);}</style><filter id="luminosity-noclip" x="470.73" y="-8692" width="24.67" height="32766" filterUnits="userSpaceOnUse" color-interpolation-filters="sRGB"><feFlood flood-color="#fff" result="bg"/><feBlend in="SourceGraphic" in2="bg"/></filter><mask id="mask" x="470.73" y="-8692" width="24.67" height="32766" maskUnits="userSpaceOnUse"><g class="cls-124"/></mask><linearGradient id="linear-gradient" x1="1073.66" y1="446.8" x2="1078.49" y2="420.08" gradientTransform="matrix(-0.83, -0.56, -0.56, 0.83, 1617.14, 456.92)" gradientUnits="userSpaceOnUse"><stop offset="0"/><stop offset="0.18" stop-color="#2d2d2d"/><stop offset="0.99" stop-color="#fff"/></linearGradient><filter id="luminosity-noclip-2" x="472.98" y="-8692" width="21.04" height="32766" filterUnits="userSpaceOnUse" color-interpolation-filters="sRGB"><feFlood flood-color="#fff" result="bg"/><feBlend in="SourceGraphic" in2="bg"/></filter><mask id="mask-2" x="472.98" y="-8692" width="21.04" height="32766" maskUnits="userSpaceOnUse"><g class="cls-123"/></mask><linearGradient id="linear-gradient-2" x1="1074" y1="445.93" x2="1078.05" y2="423.48" xlink:href="#linear-gradient"/><filter id="luminosity-noclip-3" x="568.94" y="-8692" width="22.31" height="32766" filterUnits="userSpaceOnUse" color-interpolation-filters="sRGB"><feFlood flood-color="#fff" result="bg"/><feBlend in="SourceGraphic" in2="bg"/></filter><mask id="mask-3" x="568.94" y="-8692" width="22.31" height="32766" maskUnits="userSpaceOnUse"><g class="cls-122"/></mask><linearGradient id="linear-gradient-3" x1="978.51" y1="366.6" x2="983.33" y2="339.89" gradientTransform="matrix(-0.95, -0.32, -0.32, 0.95, 1622.41, 190.45)" xlink:href="#linear-gradient"/><filter id="luminosity-noclip-4" x="570.55" y="-8692" width="19.17" height="32766" filterUnits="userSpaceOnUse" color-interpolation-filters="sRGB"><feFlood flood-color="#fff" result="bg"/><feBlend in="SourceGraphic" in2="bg"/></filter><mask id="mask-4" x="570.55" y="-8692" width="19.17" height="32766" maskUnits="userSpaceOnUse"><g class="cls-121"/></mask><linearGradient id="linear-gradient-4" x1="978.83" y1="365.74" x2="982.89" y2="343.29" gradientTransform="matrix(-0.95, -0.32, -0.32, 0.95, 1622.41, 190.45)" xlink:href="#linear-gradient"/><linearGradient id="linear-gradient-5" x1="336.48" y1="933.8" x2="366.83" y2="933.8" gradientTransform="translate(18.41 -58.26) rotate(1.09)" gradientUnits="userSpaceOnUse"><stop offset="0.04" stop-color="#ffd324"/><stop offset="1" stop-color="#f7a52c"/></linearGradient><linearGradient id="linear-gradient-6" x1="336.48" y1="933.81" x2="366.83" y2="933.81" xlink:href="#linear-gradient-5"/><linearGradient id="linear-gradient-7" x1="355.57" y1="929.18" x2="392.29" y2="929.18" xlink:href="#linear-gradient-5"/><linearGradient id="linear-gradient-8" x1="355.56" y1="929.92" x2="392.29" y2="929.92" xlink:href="#linear-gradient-5"/><linearGradient id="linear-gradient-9" x1="377.49" y1="883.87" x2="458.6" y2="883.87" xlink:href="#linear-gradient-5"/><linearGradient id="linear-gradient-10" x1="377.49" y1="883.87" x2="458.6" y2="883.87" xlink:href="#linear-gradient-5"/><linearGradient id="linear-gradient-11" x1="379.31" y1="938.09" x2="394.59" y2="938.09" xlink:href="#linear-gradient-5"/><linearGradient id="linear-gradient-12" x1="383.72" y1="923.16" x2="402.18" y2="923.16" xlink:href="#linear-gradient-5"/><linearGradient id="linear-gradient-13" x1="472.1" y1="881.68" x2="490.11" y2="881.68" gradientTransform="matrix(1.34, 0.41, -0.35, 1.14, 64.14, -338.72)" xlink:href="#linear-gradient-5"/><linearGradient id="linear-gradient-14" x1="392.03" y1="937.4" x2="451.23" y2="937.4" xlink:href="#linear-gradient-5"/><linearGradient id="linear-gradient-15" x1="756.22" y1="917.57" x2="786.56" y2="917.57" gradientTransform="matrix(-0.99, 0.13, 0.13, 0.99, 1308.59, -128.6)" xlink:href="#linear-gradient-5"/><linearGradient id="linear-gradient-16" x1="756.2" y1="917.58" x2="786.56" y2="917.58" gradientTransform="matrix(-0.99, 0.13, 0.13, 0.99, 1308.59, -128.6)" xlink:href="#linear-gradient-5"/><linearGradient id="linear-gradient-17" x1="775.29" y1="912.95" x2="812.04" y2="912.95" gradientTransform="matrix(-0.99, 0.13, 0.13, 0.99, 1308.59, -128.6)" xlink:href="#linear-gradient-5"/><linearGradient id="linear-gradient-18" x1="775.3" y1="913.7" x2="812.04" y2="913.7" gradientTransform="matrix(-0.99, 0.13, 0.13, 0.99, 1308.59, -128.6)" xlink:href="#linear-gradient-5"/><linearGradient id="linear-gradient-19" x1="797.22" y1="867.64" x2="878.33" y2="867.64" gradientTransform="matrix(-0.99, 0.13, 0.13, 0.99, 1308.59, -128.6)" xlink:href="#linear-gradient-5"/><linearGradient id="linear-gradient-20" x1="797.23" y1="867.64" x2="878.33" y2="867.64" gradientTransform="matrix(-0.99, 0.13, 0.13, 0.99, 1308.59, -128.6)" xlink:href="#linear-gradient-5"/><linearGradient id="linear-gradient-21" x1="799.04" y1="921.85" x2="814.33" y2="921.85" gradientTransform="matrix(-0.99, 0.13, 0.13, 0.99, 1308.59, -128.6)" xlink:href="#linear-gradient-5"/><linearGradient id="linear-gradient-22" x1="803.45" y1="906.92" x2="821.92" y2="906.92" gradientTransform="matrix(-0.99, 0.13, 0.13, 0.99, 1308.59, -128.6)" xlink:href="#linear-gradient-5"/><linearGradient id="linear-gradient-23" x1="756.23" y1="773.6" x2="774.25" y2="773.6" gradientTransform="matrix(-1.29, 0.55, 0.47, 1.1, 1232.4, -403.62)" xlink:href="#linear-gradient-5"/><linearGradient id="linear-gradient-24" x1="811.77" y1="921.16" x2="870.97" y2="921.16" gradientTransform="matrix(-0.99, 0.13, 0.13, 0.99, 1308.59, -128.6)" xlink:href="#linear-gradient-5"/><radialGradient id="radial-gradient" cx="499.51" cy="618.19" fy="645.9660401479694" r="200.25" gradientUnits="userSpaceOnUse"><stop offset="0.02" stop-color="#fff"/><stop offset="0.21" stop-color="#fffdf7"/><stop offset="0.47" stop-color="#fff8e4"/><stop offset="0.57" stop-color="#fff3dd"/><stop offset="0.72" stop-color="#fde7ca"/><stop offset="0.89" stop-color="#fbd2ab"/><stop offset="0.96" stop-color="#fac99d"/></radialGradient><radialGradient id="radial-gradient-2" cx="499.51" cy="618.18" fy="645.9583384607931" r="200.24" gradientUnits="userSpaceOnUse"><stop offset="0.02" stop-color="#fff"/><stop offset="0.21" stop-color="#fffdf7"/><stop offset="0.47" stop-color="#fff8e4"/><stop offset="0.59" stop-color="#feefd7"/><stop offset="0.79" stop-color="#fcd9b5"/><stop offset="0.92" stop-color="#fac99d"/></radialGradient><radialGradient id="radial-gradient-3" cx="731.85" cy="278.03" r="183.98" gradientUnits="userSpaceOnUse"><stop offset="0.02" stop-color="#fff"/><stop offset="0.36" stop-color="#fff8e4"/><stop offset="0.48" stop-color="#fff3dd"/><stop offset="0.65" stop-color="#fde7ca"/><stop offset="0.86" stop-color="#fbd2ab"/><stop offset="0.93" stop-color="#fac99d"/></radialGradient><radialGradient id="radial-gradient-4" cx="731.85" cy="278.76" r="183.56" xlink:href="#radial-gradient-3"/><radialGradient id="radial-gradient-5" cx="717.35" cy="313.62" r="92.54" gradientUnits="userSpaceOnUse"><stop offset="0.02" stop-color="#fff"/><stop offset="0.23" stop-color="#fff8e4"/><stop offset="0.36" stop-color="#fff4e0"/><stop offset="0.5" stop-color="#fdead3"/><stop offset="0.64" stop-color="#fcd8bd"/><stop offset="0.74" stop-color="#fac9ab"/></radialGradient><radialGradient id="radial-gradient-6" cx="703.2" cy="310.33" r="55.05" xlink:href="#radial-gradient-5"/><radialGradient id="radial-gradient-7" cx="748.4" cy="349.68" r="54.96" gradientTransform="matrix(-0.92, -0.4, -0.4, 0.92, 1560.59, 327.21)" xlink:href="#radial-gradient-5"/><radialGradient id="radial-gradient-8" cx="731.16" cy="351.22" r="56.02" gradientTransform="matrix(-0.92, -0.4, -0.4, 0.92, 1560.59, 327.21)" xlink:href="#radial-gradient-5"/><radialGradient id="radial-gradient-9" cx="840.25" cy="470.76" r="75.25" gradientTransform="matrix(1, -0.09, 0.09, 1, -34.13, 69.34)" gradientUnits="userSpaceOnUse"><stop offset="0.02" stop-color="#fff"/><stop offset="0.36" stop-color="#fff8e4"/><stop offset="0.46" stop-color="#fff3dd"/><stop offset="0.59" stop-color="#fde7ca"/><stop offset="0.75" stop-color="#fbd2ab"/><stop offset="0.81" stop-color="#fac99d"/></radialGradient><radialGradient id="radial-gradient-10" cx="501.3" cy="663.63" r="137.59" gradientUnits="userSpaceOnUse"><stop offset="0.02" stop-color="#fff"/><stop offset="0.34" stop-color="#fffdf6"/><stop offset="0.76" stop-color="#fff8e4"/></radialGradient><radialGradient id="radial-gradient-11" cx="503.37" cy="686.86" r="157.13" xlink:href="#radial-gradient-10"/><radialGradient id="radial-gradient-12" cx="134.65" cy="817.64" fx="126.40309370810807" fy="922.7739329520205" r="757.85" gradientUnits="userSpaceOnUse"><stop offset="0.02" stop-color="#fff"/><stop offset="0.21" stop-color="#fffdf7"/><stop offset="0.47" stop-color="#fff8e4"/><stop offset="0.55" stop-color="#fbeed7"/><stop offset="0.69" stop-color="#f2d5b5"/><stop offset="0.8" stop-color="#e9bd94"/></radialGradient><radialGradient id="radial-gradient-13" cx="532.12" cy="268.9" fx="496.74283216336386" fy="339.5291607095819" r="342.79" gradientUnits="userSpaceOnUse"><stop offset="0.25" stop-color="#f6a142"/><stop offset="0.36" stop-color="#f48f3e"/><stop offset="0.58" stop-color="#ed6135"/><stop offset="0.84" stop-color="#e52629"/></radialGradient><radialGradient id="radial-gradient-14" cx="532.12" cy="268.9" fx="496.74313215118514" fy="339.5318098120102" r="342.79" gradientUnits="userSpaceOnUse"><stop offset="0.1" stop-color="#f6a142"/><stop offset="0.21" stop-color="#f39a41"/><stop offset="0.38" stop-color="#ec863c"/><stop offset="0.58" stop-color="#e06536"/><stop offset="0.8" stop-color="#cf382d"/><stop offset="0.88" stop-color="#c82629"/></radialGradient><radialGradient id="radial-gradient-15" cx="661.11" cy="441.73" fx="661.1080603179271" fy="441.7268025784988" r="0.69" xlink:href="#radial-gradient-14"/><radialGradient id="radial-gradient-16" cx="529.39" cy="279.11" r="99.46" gradientUnits="userSpaceOnUse"><stop offset="0.01" stop-color="#c80029"/><stop offset="0.45" stop-color="#e2768c"/><stop offset="0.83" stop-color="#f7d8df"/><stop offset="1" stop-color="#fff"/></radialGradient><radialGradient id="radial-gradient-17" cx="1034.96" cy="188.21" fx="1026.5765653291983" fy="199.41534387650606" r="63.85" gradientTransform="matrix(-1, 0.01, 0.01, 1, 1489.03, 23.96)" gradientUnits="userSpaceOnUse"><stop offset="0" stop-color="#fff"/><stop offset="0.51" stop-color="#fdfdfd"/><stop offset="0.71" stop-color="#f6f7f6"/><stop offset="0.85" stop-color="#ebebea"/><stop offset="0.97" stop-color="#dadbd9"/><stop offset="0.99" stop-color="#d5d6d4"/></radialGradient><radialGradient id="radial-gradient-18" cx="1034.97" cy="190.37" fx="1026.586177822872" fy="201.57950735211995" r="63.85" xlink:href="#radial-gradient-17"/><radialGradient id="radial-gradient-19" cx="986.65" cy="137.52" r="90.93" gradientTransform="matrix(-1, 0, 0, 1, 1489.15, 23.91)" gradientUnits="userSpaceOnUse"><stop offset="0" stop-color="#feecdf"/><stop offset="1" stop-color="#e1f2fd"/></radialGradient><radialGradient id="radial-gradient-20" cx="471.4" cy="209.19" r="71.3" gradientTransform="translate(35.46 -64.2) rotate(6.02)" gradientUnits="userSpaceOnUse"><stop offset="0.12" stop-color="#1c73ad"/><stop offset="0.25" stop-color="#186ba3"/><stop offset="0.47" stop-color="#0f5486"/><stop offset="0.73" stop-color="#00325c"/></radialGradient><filter id="luminosity-noclip-5" x="470.73" y="198.53" width="24.67" height="27.71" filterUnits="userSpaceOnUse" color-interpolation-filters="sRGB"><feFlood flood-color="#fff" result="bg"/><feBlend in="SourceGraphic" in2="bg"/></filter><mask id="mask-5" x="470.73" y="198.53" width="24.67" height="27.71" maskUnits="userSpaceOnUse"><g class="cls-1"><path class="cls-2" d="M474.32,206.6c-4.8,6.94-4.79,15.17,0,18.37s12.63.15,17.45-6.78,4.79-15.17,0-18.39S479.13,199.65,474.32,206.6Z"/></g></mask><linearGradient id="linear-gradient-25" x1="1073.66" y1="446.8" x2="1078.49" y2="420.08" gradientTransform="matrix(-0.83, -0.56, -0.56, 0.83, 1617.14, 456.92)" gradientUnits="userSpaceOnUse"><stop offset="0" stop-color="#fff"/><stop offset="0.99" stop-color="#d5d6d4"/></linearGradient><filter id="luminosity-noclip-6" x="472.98" y="199.28" width="21.04" height="23.39" filterUnits="userSpaceOnUse" color-interpolation-filters="sRGB"><feFlood flood-color="#fff" result="bg"/><feBlend in="SourceGraphic" in2="bg"/></filter><mask id="mask-6" x="472.98" y="199.28" width="21.04" height="23.39" maskUnits="userSpaceOnUse"><g class="cls-3"><path class="cls-4" d="M475.94,206c-4.05,5.83-3.93,12.8.25,15.56s10.8.28,14.86-5.55,3.94-12.81-.23-15.58S480,200.13,475.94,206Z"/></g></mask><linearGradient id="linear-gradient-26" x1="1074" y1="445.93" x2="1078.05" y2="423.48" xlink:href="#linear-gradient-25"/><radialGradient id="radial-gradient-21" cx="705.87" cy="420.63" r="21.57" gradientTransform="matrix(1.07, 0.41, -0.35, 0.97, -132.97, -471.79)" gradientUnits="userSpaceOnUse"><stop offset="0.12" stop-color="#1c73ad"/><stop offset="0.26" stop-color="#1b70a9"/><stop offset="0.39" stop-color="#16669d"/><stop offset="0.53" stop-color="#0f5688"/><stop offset="0.67" stop-color="#063f6c"/><stop offset="0.73" stop-color="#00325c"/></radialGradient><radialGradient id="radial-gradient-22" cx="697.91" cy="287.14" r="47.32" gradientTransform="translate(64.2 -408.39) rotate(33.67)" xlink:href="#radial-gradient-21"/><radialGradient id="radial-gradient-23" cx="695.95" cy="291.95" r="28.57" gradientTransform="matrix(0.86, 0.51, -0.51, 0.86, 28.33, -379.1)" xlink:href="#radial-gradient-21"/><radialGradient id="radial-gradient-24" cx="485.78" cy="266.9" fx="475.41197486130926" r="26.19" gradientTransform="translate(35.46 -64.2) rotate(6.02)" xlink:href="#radial-gradient-21"/><radialGradient id="radial-gradient-25" cx="719.81" cy="311" r="19.17" gradientTransform="matrix(0.82, 0.57, -0.57, 0.82, 82.4, -422.63)" gradientUnits="userSpaceOnUse"><stop offset="0" stop-color="#1c73ad"/><stop offset="0.12" stop-color="#1c73ad"/></radialGradient><radialGradient id="radial-gradient-26" cx="718.01" cy="317.17" r="28.7" gradientTransform="translate(64.2 -408.39) rotate(33.67)" xlink:href="#radial-gradient-21"/><radialGradient id="radial-gradient-27" cx="913.77" cy="180.13" fx="905.1756519776555" fy="191.6275513146777" r="65.5" gradientTransform="matrix(-0.96, 0.29, 0.29, 0.96, 1372.81, -211.01)" xlink:href="#radial-gradient-17"/><radialGradient id="radial-gradient-28" cx="913.78" cy="182.36" fx="905.1793579791578" fy="193.85910844843946" r="65.49" gradientTransform="matrix(-0.96, 0.29, 0.29, 0.96, 1372.81, -211.01)" xlink:href="#radial-gradient-17"/><radialGradient id="radial-gradient-29" cx="864.68" cy="127.51" r="93.26" gradientTransform="matrix(-0.96, 0.29, 0.29, 0.96, 1373.46, -210.8)" xlink:href="#radial-gradient-19"/><radialGradient id="radial-gradient-30" cx="593.29" cy="183.43" r="71.32" gradientTransform="matrix(0.99, -0.17, 0.17, 0.99, -41.53, 117.46)" xlink:href="#radial-gradient-20"/><filter id="luminosity-noclip-7" x="568.94" y="201.59" width="22.31" height="29.64" filterUnits="userSpaceOnUse" color-interpolation-filters="sRGB"><feFlood flood-color="#fff" result="bg"/><feBlend in="SourceGraphic" in2="bg"/></filter><mask id="mask-7" x="568.94" y="201.59" width="22.31" height="29.64" maskUnits="userSpaceOnUse"><g class="cls-5"><path class="cls-6" d="M570.11,213.21c-2.75,8-.5,15.91,5,17.67s12.21-3.27,14.94-11.26.51-15.89-5-17.67S572.86,205.22,570.11,213.21Z"/></g></mask><linearGradient id="linear-gradient-27" x1="978.51" y1="366.6" x2="983.33" y2="339.89" gradientTransform="matrix(-0.95, -0.32, -0.32, 0.95, 1622.41, 190.45)" xlink:href="#linear-gradient-25"/><filter id="luminosity-noclip-8" x="570.55" y="202.48" width="19.17" height="24.93" filterUnits="userSpaceOnUse" color-interpolation-filters="sRGB"><feFlood flood-color="#fff" result="bg"/><feBlend in="SourceGraphic" in2="bg"/></filter><mask id="mask-8" x="570.55" y="202.48" width="19.17" height="24.93" maskUnits="userSpaceOnUse"><g class="cls-7"><path class="cls-8" d="M571.52,212.17c-2.32,6.71-.33,13.39,4.44,14.92s10.48-2.66,12.8-9.39.31-13.38-4.45-14.9S573.82,205.44,571.52,212.17Z"/></g></mask><linearGradient id="linear-gradient-28" x1="978.83" y1="365.74" x2="982.89" y2="343.29" gradientTransform="matrix(-0.95, -0.32, -0.32, 0.95, 1622.41, 190.45)" xlink:href="#linear-gradient-25"/><radialGradient id="radial-gradient-31" cx="804.04" cy="366.12" r="21.57" gradientTransform="matrix(1.14, 0.1, -0.07, 1.03, -314.52, -229.32)" xlink:href="#radial-gradient-21"/><radialGradient id="radial-gradient-32" cx="793.98" cy="208.27" r="47.32" gradientTransform="matrix(0.95, 0.31, -0.31, 0.95, -107.06, -222.11)" xlink:href="#radial-gradient-21"/><radialGradient id="radial-gradient-33" cx="796.12" cy="217.75" r="28.58" gradientTransform="translate(-133.91 -183.96) rotate(15.02)" xlink:href="#radial-gradient-21"/><radialGradient id="radial-gradient-34" cx="607.67" cy="241.14" fx="597.298695700071" r="26.2" gradientTransform="matrix(0.99, -0.17, 0.17, 0.99, -41.53, 117.46)" xlink:href="#radial-gradient-21"/><radialGradient id="radial-gradient-35" cx="814.1" cy="228.46" r="19.17" gradientTransform="matrix(0.94, 0.33, -0.33, 0.94, -93.99, -239.63)" xlink:href="#radial-gradient-25"/><radialGradient id="radial-gradient-36" cx="814.09" cy="238.31" r="28.69" gradientTransform="matrix(0.95, 0.31, -0.31, 0.95, -107.06, -222.11)" xlink:href="#radial-gradient-21"/><radialGradient id="radial-gradient-37" cx="534.46" cy="288.98" r="59.28" gradientUnits="userSpaceOnUse"><stop offset="0.41" stop-color="#fdef6f"/><stop offset="1" stop-color="#fab31f"/></radialGradient><radialGradient id="radial-gradient-38" cx="534.09" cy="105.42" fx="513.2934778466465" r="79.33" gradientUnits="userSpaceOnUse"><stop offset="0" stop-color="#e68a69"/><stop offset="0.2" stop-color="#e68a69"/><stop offset="0.65" stop-color="#e52629"/><stop offset="0.74" stop-color="#dd2629"/><stop offset="0.89" stop-color="#c8272a"/><stop offset="0.97" stop-color="#ba272a"/></radialGradient><radialGradient id="radial-gradient-39" cx="557.24" cy="118.61" fx="517.9213263582186" r="73.88" gradientUnits="userSpaceOnUse"><stop offset="0.25" stop-color="#e52629"/><stop offset="0.33" stop-color="#dd2629"/><stop offset="0.45" stop-color="#c8272a"/><stop offset="0.51" stop-color="#ba272a"/><stop offset="0.62" stop-color="#b6272a"/><stop offset="0.71" stop-color="#ab272a"/><stop offset="0.81" stop-color="#99272a"/><stop offset="0.87" stop-color="#88272a"/></radialGradient><radialGradient id="radial-gradient-40" cx="636.65" cy="133.96" fx="636.6491554762397" r="63.36" gradientTransform="matrix(0.99, 0.12, -0.12, 0.99, 37.58, -80.67)" xlink:href="#radial-gradient-39"/><radialGradient id="radial-gradient-41" cx="558.44" cy="90.76" fx="558.4395020335596" r="76.42" xlink:href="#radial-gradient-39"/><radialGradient id="radial-gradient-42" cx="555.23" cy="91.64" fx="555.2279060265082" r="76.01" xlink:href="#radial-gradient-39"/><radialGradient id="radial-gradient-43" cx="469.44" cy="291.43" fx="469.4441796748861" r="157.46" gradientTransform="translate(489.84 -398.21) rotate(59.11)" xlink:href="#radial-gradient-39"/><radialGradient id="radial-gradient-44" cx="504.14" cy="110.93" fx="461.15826955259047" r="80.76" gradientUnits="userSpaceOnUse"><stop offset="0.12" stop-color="#e68a69"/><stop offset="0.12" stop-color="#e68a69"/><stop offset="0.17" stop-color="#e67e61"/><stop offset="0.51" stop-color="#e52629"/><stop offset="0.61" stop-color="#dd2629"/><stop offset="0.76" stop-color="#c8272a"/><stop offset="0.84" stop-color="#ba272a"/></radialGradient><radialGradient id="radial-gradient-45" cx="479.57" cy="166.86" r="92.56" gradientUnits="userSpaceOnUse"><stop offset="0" stop-color="#f59d22"/><stop offset="0.12" stop-color="#f49622"/><stop offset="0.29" stop-color="#f18224"/><stop offset="0.5" stop-color="#ed6126"/><stop offset="0.73" stop-color="#e73428"/><stop offset="0.8" stop-color="#e52629"/></radialGradient><radialGradient id="radial-gradient-46" cx="596.92" cy="288.1" r="42.94" gradientUnits="userSpaceOnUse"><stop offset="0.13" stop-color="#f28d65"/><stop offset="0.2" stop-color="#ea8862"/><stop offset="0.31" stop-color="#d57c59"/><stop offset="0.43" stop-color="#b1674a"/><stop offset="0.58" stop-color="#804b36"/><stop offset="0.74" stop-color="#42271c"/><stop offset="0.9"/></radialGradient><radialGradient id="radial-gradient-47" cx="692.98" cy="344.66" r="20.54" gradientTransform="translate(-164.21 179.29) rotate(-18.7)" xlink:href="#radial-gradient-46"/><radialGradient id="radial-gradient-48" cx="752.09" cy="299.1" fx="731.733994098826" r="42.93" gradientTransform="matrix(-0.99, -0.14, -0.14, 0.99, 1251.49, 83.79)" xlink:href="#radial-gradient-46"/><radialGradient id="radial-gradient-49" cx="835.82" cy="404.47" r="20.54" gradientTransform="matrix(-0.89, -0.45, -0.45, 0.89, 1389.17, 283.77)" xlink:href="#radial-gradient-46"/><radialGradient id="radial-gradient-50" cx="383.61" cy="505.66" r="173.48" gradientUnits="userSpaceOnUse"><stop offset="0" stop-color="#f59d22"/><stop offset="0.07" stop-color="#ee9821"/><stop offset="0.18" stop-color="#da8c1e"/><stop offset="0.3" stop-color="#b9771a"/><stop offset="0.45" stop-color="#8c5a13"/><stop offset="0.6" stop-color="#51340b"/><stop offset="0.77" stop-color="#0b0702"/><stop offset="0.8"/></radialGradient><radialGradient id="radial-gradient-51" cx="383.61" cy="505.65" r="173.48" xlink:href="#radial-gradient-50"/><radialGradient id="radial-gradient-52" cx="383.62" cy="505.65" r="173.45" xlink:href="#radial-gradient-50"/><radialGradient id="radial-gradient-53" cx="371.64" cy="453.86" r="173.45" gradientTransform="matrix(0.96, -0.29, 0.29, 0.96, -91.19, 194.1)" xlink:href="#radial-gradient-50"/><radialGradient id="radial-gradient-54" cx="517.94" cy="630.53" r="236.73" xlink:href="#radial-gradient-50"/><radialGradient id="radial-gradient-55" cx="560.48" cy="663.79" r="231.5" gradientTransform="translate(53.8 -74.15) rotate(6.85)" xlink:href="#radial-gradient-50"/><radialGradient id="radial-gradient-56" cx="371.66" cy="453.85" r="173.44" gradientTransform="matrix(0.96, -0.29, 0.29, 0.96, -91.19, 194.1)" xlink:href="#radial-gradient-50"/><radialGradient id="radial-gradient-57" cx="557.46" cy="638.74" r="226.83" xlink:href="#radial-gradient-50"/><radialGradient id="radial-gradient-58" cx="515.97" cy="563.94" r="200.15" xlink:href="#radial-gradient-50"/><radialGradient id="radial-gradient-59" cx="351.32" cy="423.72" r="198.71" xlink:href="#radial-gradient-50"/></defs><title>chickWithoutWings</title><g class="cls-9"><g id="Layer_1" data-name="Layer 1"><path class="cls-10" d="M367.86,859.37s-7-6.48-16.93,2.13-20.53,37.08-9.19,45.37c1.94,1,8.13-2.55,11.77-13.74a63.93,63.93,0,0,1,9.42-18.41Z"/><path class="cls-11" d="M368.14,859.37c-17.55-15.41-39.45,31.59-29.06,45,8,10.31,15.27-13,17.1-17.4,2-4.61,5.89-8.59,7.38-13.25l4.61-14.29c.05-.16-.55-.32-.6-.15-1.49,4.61-2.33,11.85-5.23,15.69-6.88,9.07-7.93,22-16.08,29.91-6.42,6.17-9-6-9.12-10.07-.13-5.11,1.32-10.27,3-15.05a53.17,53.17,0,0,1,7.81-14.61c4.18-5.55,13.17-11.5,19.67-5.8C367.71,859.5,368.29,859.51,368.14,859.37Z"/><path class="cls-11" d="M337.56,892.15c4-3.22,9-1.72,12.3,1.74.2.23,1.1,0,.93-.17-3.75-3.92-9.56-5.31-14.1-1.69-.27.22.66.27.87.12Z"/><path class="cls-11" d="M340.27,880.39a9.1,9.1,0,0,1,1.9-1.87c3.54-2.68,7.31-.26,9.9,2.45.19.21,1.08,0,.91-.2-2.45-2.58-5.44-4.53-9.11-3.62a8.17,8.17,0,0,0-4.53,3.24c-.14.19.76.26.93,0Z"/><path class="cls-11" d="M348.33,865c3.27-2,6.42.35,8.11,3.18.16.28,1.09.24,1,0-2-3.37-6.09-5.88-9.88-3.53-.31.21.61.45.81.31Z"/><g class="cls-12"><path class="cls-13" d="M358.57,857.35a6.11,6.11,0,0,1-.57,6.51c-3.29,4.82-4.08,7.74-5.39,12.62-1.2,4.43-1.77,28.71-13,28.24a10.85,10.85,0,0,0,2.13,2.15c1.94,1,8.13-2.55,11.77-13.74a63.93,63.93,0,0,1,9.42-18.41l4.93-15.35A10.76,10.76,0,0,0,358.57,857.35Z"/><path class="cls-14" d="M358.26,857.38c2,5.12-3.91,12-5.41,17.11a47.66,47.66,0,0,0-1.37,7.3c-.89,6.83-2.18,22.53-11.79,22.81-.06,0-.49,0-.38.19,8,9.3,15.11-13.66,16.87-17.86,1.94-4.57,5.89-8.64,7.38-13.25s3.07-9.53,4.61-14.31a.06.06,0,0,0,0,0c-2.75-2.35-6.17-2.57-9.59-2.09-.37,0-.36.3,0,.24,11.47-1.59,8.66,2.87,6.71,9-.83,2.56-1.3,6.47-2.95,8.63A63.8,63.8,0,0,0,354,891c-1.49,3.83-2.69,7.47-5,10.92a16.21,16.21,0,0,1-3.56,3.78c-1.51.05-3,.1-4.51.13-.57-.66-.66-1-.26-1,7.23-.77,9.22-10.42,10.38-16.15.8-4,.94-8.2,1.9-12.19A40.32,40.32,0,0,1,357,865.81c1.77-3.13,3.27-4.86,1.85-8.49C358.82,857.13,358.2,857.25,358.26,857.38Z"/></g><path class="cls-15" d="M393.3,860.6s-7.37-11.15-15.72-10.1-19.09,12.87-21.19,33.14c-1.81,18.33,3.26,21.84,8.17,21.46s6.67-30,20.86-29.23C391.08,874.51,393.3,860.6,393.3,860.6Z"/><path class="cls-11" d="M393.61,860.58c-6.44-9.47-15.86-13.55-25.06-5.56-7.47,6.47-10.73,17-12.21,26.39-1,6.38-2.44,18,3.6,22.69,7.86,6.12,10.53-10.53,12.09-14.6a33.19,33.19,0,0,1,5.65-10,11,11,0,0,1,4.9-3.21c1-.33,2.92,0,4-.7,4.65-3,6.17-9.9,7-15,0-.16-.58-.22-.62,0a32.63,32.63,0,0,1-4.59,12.76c-1.9,2.84-7.8,2.91-10.58,5.34-7.14,6.22-7.3,17.15-11.82,24.91-1.68,2.91-5.49.83-7.07-1.09-1.95-2.39-2.24-5.93-2.5-8.86a56.94,56.94,0,0,1,4.84-27.3c2.59-5.93,6.92-11.54,12.75-14.57,7.52-3.9,15,3,19,8.84C393.11,860.76,393.7,860.73,393.61,860.58Z"/><path class="cls-11" d="M357.12,880.51c4.48-3.77,10.17-2.3,14,1.57.22.21,1.1,0,.93-.22-4.32-4.34-10.83-5.62-15.79-1.44-.28.23.66.26.85.09Z"/><path class="cls-11" d="M363.74,862.21a14,14,0,0,1,16.89,8c.13.26,1.08.26,1,0-3.24-7.23-11-10.4-18.52-8.32-.5.14.41.41.65.36Z"/><path class="cls-11" d="M373.49,852.37c5.54-1.11,10.09,2.35,11.77,7.49.1.27,1,.45.91.22-1.86-5.72-7.31-9.4-13.38-8.18-.35.07.46.52.7.47Z"/><g class="cls-12"><path class="cls-16" d="M384.28,852c.89,1.86,1.29,4.32-1.7,5.67-5.18,2.35-3.25,4.6-5.31,8.95s-6.8,9.92-9.7,21.12c-2.42,9.36-5.61,13.56-9.43,13.94a6.41,6.41,0,0,0,6.42,3.39c4.89-.4,6.67-30,20.86-29.23,5.66-1.36,7.88-15.27,7.88-15.27S389.51,854.89,384.28,852Z"/><path class="cls-14" d="M384,852.08c1.85,4.84-4,5.58-5.54,9.35-1.45,3.55-2.23,6.77-4.25,10.17a66.58,66.58,0,0,0-6.31,14c-1.68,5.22-3,14.72-9.76,16-.05,0-.36.08-.26.2,2.3,3.15,6.75,5.29,9.08,1.26,3.82-6.55,4.69-14.45,8.75-21,2.84-4.57,6.09-4.67,10.81-6.44,2.9-1.07,4.36-5.36,5.3-7.9.35-1,2.5-6.14,1.79-7.18a29.44,29.44,0,0,0-9-8.59c-.13-.09-.72.07-.51.19a30.43,30.43,0,0,1,8,7.23c1.32,1.66.64,2.94.16,4.91a31.87,31.87,0,0,1-3.15,8.14c-1.68,3-4.2,2.79-6.88,3.7-8.65,3-11.19,14.41-13.85,22.07a40.57,40.57,0,0,1-2,4.88c-1.89,3.72-10-.34-6.18-1.78,5.47-2,7-11,8.32-15.69,1.94-6.93,5.95-12.59,9.1-18.94a17.16,17.16,0,0,0,1.21-4.13c.6-2.94,3-4.11,5.43-5.69,1.62-1.07.89-3.46.38-4.84C384.53,851.8,383.93,851.94,384,852.08Z"/></g><path class="cls-17" d="M410.33,776.22s3.1,68.37-.78,79c1.44,2.26-13.29-8.31-21.95,8.89s-14.78,43.55-4.32,46.44c6.11,1.58,11-10.81,13.81-17.38s7.33-12.57,20.07-13.32,18.35.35,24.63,5.37,9.12,9.71,14.31,6.88,2.95-13.4-.84-19.84-10.4-6.81-18-8.42-11.88-5.62-11.42-17.35,3-78.29.52-91C425.52,763.3,410.33,776.22,410.33,776.22Z"/><path class="cls-11" d="M410,776.21c.74,16.43,1.18,32.89,1.18,49.34,0,9,.15,18.19-1.3,27.06-.57,3.41-1,2.6-4.11,1.85a17.08,17.08,0,0,0-8.55.14c-11.29,3-15.56,21.81-18,31.48-1.65,6.6-5,21.42,3.86,24.62,7.69,2.74,12.77-14.11,14.78-18.57,3.61-8.07,10.76-11.36,19.35-12.11,11-.93,19.4.9,27.65,8.22,3.86,3.39,7.58,6.8,12.48,3.27,5.77-4.17,0-16.58-2.82-20.7-4.62-6.82-15.2-5.57-21.81-8.6-7.86-3.61-6.63-13.75-6.35-20.87q.86-23,1.25-46c.2-13,1.35-27-.94-39.88,0-.17-.61-.21-.64,0-1.49,8.21-10,15.5-16.05,20.7-.09.09.47.22.61.11a102,102,0,0,0,7.69-7.44c2.77-2.92,8.6-8.65,7.86-12.86,1.5,8.48,1,17.6,1,26.16,0,21.13-.7,42.27-1.54,63.37-.41,10.7,3,16.74,13.48,18.88,5.56,1.13,10.89,2,14.87,6.45,2.54,2.87,3.79,7.44,4.55,11.07,1.05,4.91-.47,16-10.19,8.72-3.35-2.51-6.14-5.61-9.75-7.82-8.37-5.14-22.1-4.29-30.89-1.11-11.1,4-12,18-18.71,26.17-4.46,5.48-9.3.79-10.45-3.87-.74-3.12-.43-6.51-.12-9.64.81-8.16,3.53-16.2,6.59-23.74,3.28-8.1,7.78-16.81,17.88-16.36,2.13.1,4.81,1.78,6.9,1.43.07,0,.16,0,.17-.09,1.46-4.61,1.41-10,1.61-14.85.4-9.18.31-18.4.19-27.6q-.25-18.45-1.08-36.91C410.63,776.05,410,776,410,776.21Z"/><path class="cls-11" d="M410.42,788.85c3.89,3.08,10.17,1.8,14.37.29.59-.22-.24-.41-.52-.31-3.83,1.38-9.44,2.59-13-.24-.21-.16-1.14,0-.83.26Z"/><path class="cls-11" d="M410.84,802.54c2.8,4.54,10.18,2.13,13.78.49.47-.22-.51-.29-.71-.19-3.3,1.51-9.63,3.55-12.15-.52-.15-.22-1.08,0-.92.22Z"/><path class="cls-11" d="M410.82,821.33c4.41,3.34,10.51,1.87,14.78-.83.19-.12-.64-.5-.89-.35-3.74,2.37-9.21,4.06-13.15,1.09-.21-.16-1.16-.22-.74.09Z"/><path class="cls-11" d="M410.65,840.75c3.69,2.49,9.16,1.23,12.91-.24.6-.23-.24-.4-.52-.3-3.4,1.35-8.21,2.51-11.56.28-.22-.16-1.13.07-.83.26Z"/><path class="cls-11" d="M409.27,855.41c5.37,1.87,10.64,5.47,13.57,10.38.16.26,1.07.26.93.05-3-5.06-8.43-8.75-13.94-10.68-.28-.11-1.14,0-.56.25Z"/><path class="cls-11" d="M410.69,850a18.31,18.31,0,0,0,13,4c.67-.07.16-.42-.26-.38a16.87,16.87,0,0,1-11.85-3.82c-.21-.17-1.14,0-.87.19Z"/><path class="cls-11" d="M380.22,885.18c5.15-2.58,10.85-.66,14.53,3.44.21.22,1.11,0,.94-.16-4.07-4.53-10.55-6.36-16.17-3.51-.47.23.48.35.7.23Z"/><path class="cls-11" d="M385.91,869c6.66-2.2,13.32,1.21,17.2,6.67.15.21,1.08.4.85.1-4.16-5.87-11.55-9.63-18.76-7.24-.36.1.47.55.71.47Z"/><path class="cls-11" d="M395.05,856.45a21.43,21.43,0,0,1,19.59,16.22c.07.28,1,.45.91.19A22.61,22.61,0,0,0,394.66,856c-.62,0,.07.46.39.46Z"/><path class="cls-11" d="M438.16,864.74c4.48,3.09,4.3,10,3.25,14.59-.05.26.92.42,1,.13,1.1-4.85,1.15-11.7-3.51-14.91-.21-.14-1.14-.11-.71.19Z"/><path class="cls-11" d="M424.43,862.82c5.94,2.42,4.39,11.53,3.06,16.06-.09.3.86.26.95,0,1.39-4.73,2.9-13.87-3.19-16.36-.23-.08-1.14.16-.82.3Z"/><g class="cls-12"><path class="cls-18" d="M455.26,872.31c-3.8-6.45-10.4-6.81-18-8.42s-11.88-5.62-11.42-17.35,3-78.29.52-91c-.88,7.81-16.07,20.73-16.07,20.73s.14,3.08.33,8c1.83-1.87,4.62-3.76,8.15-3.17,6.58,1.11,9.89,20.27-3.64,23.68,5.12,1.33,10.26,13.92,3.58,17.45,2.92,1,5.77,18.47-1.1,19.56-2.23,1.19,8.61,10.95.76,11.27-1,1.22,4.76,7.44,2.56,7.65s-1.73.21-1,1.45,1.8,8.35-3.28,4.83-11.12-7.56-8.49-5,1,9.8-9.45,8.62c-.07,3.19.7,13.74-8.84,14-.78,2.44.73,25.47-7.82,25.08-.3,0-.55,0-.81,0a5.91,5.91,0,0,0,2,1c6.11,1.58,11-10.81,13.81-17.38s7.33-12.57,20.07-13.32,18.35.35,24.63,5.37,9.12,9.71,14.31,6.88S459.05,878.75,455.26,872.31Z"/><path class="cls-14" d="M455.56,872.31c-3.15-4.63-7.39-6.26-12.69-7.43-9.29-2.06-15.66-4-16.65-14.46-.88-9.26.54-19.18.82-28.45.38-12.78.66-25.57.71-38.36.05-9.22.57-19-1.05-28.09,0-.17-.58-.27-.61-.08-1.23,6.76-7.37,12.46-12.09,17.07-1.26,1.22-2.56,2.42-3.89,3.58-.85.74.19,7,.24,8.06,0,.2.49.22.59.12,8.25-7.49,13.09.53,13.28,7.69A12.56,12.56,0,0,1,415,804.59c-.17,0-.09.15,0,.2,6.05,2.34,9.46,13.23,3.49,17.28-.08,0,0,.1,0,.15,4.73,2.86,4.66,17.77-1.09,19.38-2.78.79,8.78,10.25.83,11.27,0,0-.16,0-.16.09-.39,1.75,4.86,7.26,1.32,7.73-.07,0-.15,0-.17.09-.47,1.17,1.15,4,.82,5.86-.44,2.44-10.89-5.07-12.29-5.64-.05,0-.48-.12-.46,0,0,1.15,1.55,2.1,1.69,3.57.53,5.24-7,6-10.34,5.77-.06,0-.24,0-.24.07-.06,6.38-.75,13.17-8.67,13.94,0,0-.15,0-.18.09-1.39,6.23,1.74,25-8.38,25-.12,0-.36.07-.16.19,6,3.79,10.1-3.36,12.61-8.1,2.4-4.54,3.84-9.54,6.81-13.78,5.23-7.42,15-7.87,23.23-7.93,8.66-.11,14.84,2.73,21.2,8.37,2.46,2.16,4.92,4.8,8.39,4.92,10.62.38,4.71-16.36,2.27-20.82-.09-.15-.69-.15-.61,0a32.31,32.31,0,0,1,3.79,11.24c.76,5.4-2.35,13.17-10.43,7.13-4.48-3.37-8.06-7.88-13.62-9.59-9.76-3-23.8-2.86-32.1,3.68-3.9,3-5.61,8-7.49,12.35a52.62,52.62,0,0,1-5.25,9.64,11.83,11.83,0,0,1-3.71,3.4c-4-.25-5.33-.38-3.91-.42a4.78,4.78,0,0,0,.92-.05c7.36-1.85,6.55-15.64,6.76-21.35.09-1.77-.51-3.61,1.71-3.83a7.15,7.15,0,0,0,3.75-1.58c3.34-3.07,3.67-7.42,3.67-11.74,0-.14,6.11-1.06,6.5-1.18a6.77,6.77,0,0,0,3.43-2.77c2.29-3.3-2.87-7.14,2.44-3.68,2.36,1.54,5.25,4.88,8.38,4.34,2.82-.48-.76-6.83,1.32-7.12s-1.51-5-1.87-5.6c-1-1.82,3-3,1.88-6.11-.68-1.87-2-3.54-3-5.29s1.14-2.36,2.1-3.24c2.87-2.62,2.2-9,1.5-12.29a15.6,15.6,0,0,0-1.89-5.4c-.64-1,.28-1.31,1.09-2.18,3.35-3.56.27-10.29-2-13.38a7.4,7.4,0,0,0-2.7-2.3c.31.12,3.44-2.08,4-2.51,3.91-2.8,4.84-8.23,4.43-12.68-.63-6.88-5.19-10.72-11.66-7.78-.52.24-2.09,2.21-2.18,0-.05-1.58-.12-3.13-.19-4.7-.05-1.34.7-1.6,1.66-2.46a76.32,76.32,0,0,0,11.46-12.7,19.29,19.29,0,0,0,2.72-5.56c.21-.68-.31-.42-.17.62.09.71.16,1.42.22,2.14.4,4.48.45,9,.52,13.47.35,22.55-.47,45.13-1.3,67.64-.22,6.45-1.23,13.54,2.84,19.06,6.26,8.49,19.87,3.31,26.32,12.83C455.06,872.45,455.65,872.45,455.56,872.31Z"/></g><g class="cls-19"><path class="cls-14" d="M406.36,856.7S380.43,868,381.41,907.12c-3.48,2.15-3.24-23.06,6.65-40.74C396.39,852.58,401.25,854.13,406.36,856.7Z"/><path class="cls-14" d="M406.11,856.63c-12.36,5.48-20,19.35-23.19,31.78a67,67,0,0,0-1.26,6.9c-.25,1.89-.38,3.79-.5,5.69,0,.5-.67,5.54-.57,5.66-2.36-3.12-.79-10.66-.38-14.08,1.26-10.88,9.3-43.89,25.89-35.82.14.09.71-.06.51-.17-12.76-6.21-20,10.45-23.44,20.29a70.82,70.82,0,0,0-4.07,25.33c.06,1.26.07,5.94,2.47,5,.05,0,.14-.06.14-.12-.22-18.42,6.23-42.1,24.87-50.36C406.87,856.63,406.27,856.56,406.11,856.63Z"/></g><g class="cls-20"><path class="cls-21" d="M379.83,886.28a12.46,12.46,0,0,1,14.85,4C396.89,890.78,388.55,878.87,379.83,886.28Z"/><path class="cls-14" d="M380.09,886.41a12,12,0,0,1,13,2.4s3,3,2.11.69-3.59-4.18-5.74-5a9.51,9.51,0,0,0-9.91,1.71c-.12.08.44.31.57.19,4.25-3.37,9.17-2.78,12.94,1a7.27,7.27,0,0,1,1.62,2.3c.15.5,0,.43-.36-.18a17.68,17.68,0,0,0-1.33-1.27,12.69,12.69,0,0,0-13.41-2.05C379.37,886.27,379.93,886.47,380.09,886.41Z"/></g><g class="cls-20"><path class="cls-22" d="M384.53,871.22s10.17-5.58,17.93,5.45C405.11,877.41,395.08,860.86,384.53,871.22Z"/><path class="cls-14" d="M384.81,871.36c5.48-2.94,11.81-.93,15.9,3.41.44.46,1.16,2.33,2.17,2.09.67-.17.12-1.21,0-1.59a14.71,14.71,0,0,0-7-6.69c-4.17-2-8.34-.45-11.56,2.52-.12.12.42.38.56.26,5-4.67,11.05-3.94,15.56,1a10.83,10.83,0,0,1,2.13,3.32c.57,1.58-1.14-.79-1.25-.91a13.54,13.54,0,0,0-2.37-2.23c-4.18-3.06-9.9-4-14.63-1.49C384.13,871.17,384.64,871.45,384.81,871.36Z"/></g><g class="cls-20"><path class="cls-23" d="M393.13,857.18s14.12-.17,21.08,15.51C417.54,874.56,410.69,849.36,393.13,857.18Z"/><path class="cls-14" d="M393.25,857.32c6.64,0,12.88,4.11,16.93,9.06,0,0,5.63,10.44,5.12,4.74-.42-4.48-3.55-9.53-7-12.3-4.61-3.72-10-4-15.42-1.76-.21.08.34.29.5.24,7.78-3.23,14.56-.12,18.73,6.78a21.86,21.86,0,0,1,2.24,5.29,8.61,8.61,0,0,1,.37,2.26c.09,2.08-1-.62-1.34-1.26C409.59,863.11,401.46,857,393,857,392.59,857,393.06,857.32,393.25,857.32Z"/></g><g class="cls-12"><path class="cls-24" d="M392.28,901.47a28.53,28.53,0,0,1,14.16-24.21c14.86-9,24.62-6.14,36.41,3.37s8.35,11.67,8.35,11.67-10.34-9.73-16.91-11.83-25.93-1-30.65,3.1S393.47,903.2,392.28,901.47Z"/><path class="cls-14" d="M392.57,901.52c-.48-15.65,14.55-28.12,29.16-29.54,9.77-1,25.49,8.68,29.44,18,.48,1.18-.23,1.77.2,2.18-1.71-1.61-3.49-3.15-5.32-4.6-4.1-3.23-8.42-6.63-13.63-7.7-5.63-1.17-11.8-.65-17.44,0-5.32.63-10.48,1.63-13.8,6.09-1.05,1.42-8.59,15.48-8.68,15.43s-.72-.09-.46.08c1.31.84,2.12-1.43,2.62-2.31,3.19-5.64,5.33-14,11.62-16.9,7.46-3.44,18.17-3.41,26.08-2.15,6.94,1.11,13.6,7.53,18.56,12.18a.58.58,0,0,0,.57.07c2.77-2-4.1-8-5-8.86-6.4-6.1-14.28-11.36-23.3-11.87-15.37-.87-31.75,14.19-31.26,29.74C392,901.59,392.59,901.66,392.57,901.52Z"/></g><g class="cls-19"><path class="cls-14" d="M415.05,784.89s1.3,21.81.11,33.53-.28,26.93-2.78,31-.2-16.17-.08-22.53-.55-35.51-.51-37.46S413.14,782.9,415.05,784.89Z"/><path class="cls-14" d="M414.74,784.87A246.22,246.22,0,0,1,415,817c-.57,7.83-.76,15.65-1.22,23.46-.17,3-.34,6.23-1.69,8.94.12-.22-.5-5.07-.46-6,.36-9.74,1.07-19.3.91-29.06q-.13-8.86-.29-17.74c0-.76-.68-13.46,2.61-11.69.14.07.74,0,.45-.16-5.59-3-3.56,19-3.53,21,.24,13.42-.55,26.59-.86,40,0,.52-.49,4.88,1.16,4.31,3.59-1.25,2.58-14.58,2.66-17.26.52-16.07,1.6-31.86.66-48C415.37,784.72,414.74,784.72,414.74,784.87Z"/></g><g class="cls-19"><path class="cls-14" d="M376.55,853.18a57.74,57.74,0,0,0-18.93,42.48C356.87,896.39,353.66,860.32,376.55,853.18Z"/><path class="cls-14" d="M376.28,853.13a51.13,51.13,0,0,0-9.84,11.66c-5.21,7.94-10.76,21.54-8.71,30.35-3.51-15.06,3.75-36.6,19-41.87.38-.12-.16-.24-.32-.19-10.9,3.77-16.21,13.56-18.47,24.31-.3,1.39-2.6,18.39-.37,18.41.08,0,.38,0,.38-.16.3-15.5,6.61-32.31,18.88-42.42C377,853.08,376.4,853,376.28,853.13Z"/></g><path class="cls-25" d="M353.37,862.3s-16.54,19.75-14,39.14C337.78,896.5,335.26,874.68,353.37,862.3Z"/><path class="cls-26" d="M641,857.89s6.25-7.21,17,.31,24.38,34.64,14,44.1c-1.8,1.23-8.36-1.65-13.14-12.38a64,64,0,0,0-11.33-17.31Z"/><path class="cls-11" d="M641.23,858c10.6-11.53,24.35,7.42,28.77,15.65a48.7,48.7,0,0,1,5.09,14.65c.71,4.07.26,17.87-7.83,12.63-6.28-4-8.55-12.52-12.2-18.63a55.09,55.09,0,0,0-7-9.34c-3.26-3.59-4.85-10.56-6.84-15-.07-.17-.66-.22-.6-.07q2.9,6.51,5.81,13c1.83,4.12,5.57,7.46,8,11.32,2,3.18,12.15,27.67,19.32,18.45,11.14-14.31-17.48-59.9-33.13-42.89C640.53,857.92,641.12,858.11,641.23,858Z"/><path class="cls-11" d="M674.59,887.23c-4.37-2.76-9.11-.74-12.05,3-.18.24-1.1.1-.94-.09,3.32-4.29,8.94-6.28,13.83-3.18.29.19-.62.37-.84.22Z"/><path class="cls-11" d="M670.63,875.84a8.05,8.05,0,0,0-2.09-1.66c-3.81-2.3-7.28.52-9.57,3.49-.19.23-1.1.09-.94-.1,2.17-2.84,4.94-5.09,8.67-4.57a8.08,8.08,0,0,1,4.86,2.72c.16.17-.74.34-.93.12Z"/><path class="cls-11" d="M661,861.41c-3.46-1.67-6.33,1-7.71,4.05-.14.28-1.06.33-1,.12,1.64-3.58,5.42-6.48,9.44-4.55.35.16-.54.49-.78.38Z"/><g class="cls-12"><path class="cls-27" d="M650,854.88a6.06,6.06,0,0,0,1.26,6.4c3.78,4.44,4.86,7.26,6.7,12,1.66,4.28,4.82,28.37,16,26.71A10.25,10.25,0,0,1,672,902.3c-1.8,1.23-8.36-1.65-13.14-12.38a64,64,0,0,0-11.33-17.31L641,857.89A10.73,10.73,0,0,1,650,854.88Z"/><path class="cls-14" d="M649.67,854.88c-1.52,5.64,4.51,10.27,6.68,15.17,1.71,3.89,2.5,8,3.58,12,1.71,6.48,4.58,17.52,12.76,18.08,1.92.14-11.07-1.14-3.58,1.77a12.83,12.83,0,0,1-3.8-2.72c-2.77-2.54-4.59-6-6.18-9.35a70.86,70.86,0,0,0-10.62-16.53c-2-2.34-3-5.89-4.24-8.69-2.55-5.77-6.26-10.1,5.62-9.63.28,0,.57-.24.16-.24-3.42-.14-6.92.48-9.37,3.09a.09.09,0,0,0,0,.07q2.9,6.51,5.81,13c1.83,4.15,5.57,7.49,8,11.37S666.83,910.6,674.2,900c.08-.14-.29-.14-.32-.12-9.28.7-12.22-13.39-13.92-20.13a67.08,67.08,0,0,0-2.37-8.17c-2-5.06-8.72-11.41-7.31-16.65C650.32,854.69,649.7,854.71,649.67,854.88Z"/></g><path class="cls-28" d="M615.77,861.81s6.16-11.86,14.58-11.7,20.34,10.74,24.61,30.68c3.77,18-.91,22.06-5.81,22.2s-9.88-29.1-23.9-26.82C619.49,875.43,615.77,861.81,615.77,861.81Z"/><path class="cls-11" d="M616.09,861.88c3-5.72,8.66-12.53,16-11.46s12.9,8.28,16.43,14.07c4.77,7.86,7,17.42,7.47,26.52.17,3.32-3.46,17.64-8.93,10.06s-6.69-17.62-14.65-23.38c-2.92-2.11-6.83-.87-9.59-2.89-3.68-2.71-5.57-8.76-6.74-13,0-.17-.66-.17-.61,0,1.21,4.32,3.34,11.54,7.71,13.72,3.06,1.52,6.64.76,9.53,2.85,3.11,2.25,5.21,6,7,9.29,2.09,3.85,6.16,20.2,13.49,14.16,6.18-5.05,3-16.79,1.56-23.14-2.08-8.92-6.49-17.52-13.31-23.69-9.78-8.88-20.24-4.08-26,6.74C615.4,861.93,616,862,616.09,861.88Z"/><path class="cls-11" d="M653.89,877.74c-4.86-3.27-10.34-1.19-13.77,3.08-.19.22-1.1.07-.93-.12,3.84-4.79,10.15-6.76,15.53-3.13.31.19-.62.33-.83.17Z"/><path class="cls-11" d="M645.34,860.26A14,14,0,0,0,629.4,870c-.11.28-1,.37-.95.11,2.44-7.52,9.79-11.52,17.52-10.26.5.09-.38.47-.63.44Z"/><path class="cls-11" d="M634.59,851.52c-5.61-.51-9.77,3.43-10.89,8.7-.06.3-.94.56-.89.31,1.26-5.88,6.29-10.13,12.45-9.54.35,0-.41.57-.67.53Z"/><g class="cls-12"><path class="cls-29" d="M623.83,852.34c-.67,1.93-.82,4.42,2.3,5.44,5.41,1.79,3.74,4.22,6.25,8.36s7.81,9.11,11.89,19.94c3.43,9,7,12.88,10.86,12.85a6.34,6.34,0,0,1-6,4.06c-4.93.12-9.88-29.1-23.9-26.82-5.76-.74-9.48-14.36-9.48-14.36S619,855.74,623.83,852.34Z"/><path class="cls-14" d="M623.52,852.35c-.51,1.94-.48,3.17.83,4.74a20.49,20.49,0,0,0,3.23,1.51c2.49,1,2.89,3.92,3.72,6.1,1.91,5,6.55,9.31,9.22,13.94,3.23,5.62,4.67,15.34,10.6,19.08a6.89,6.89,0,0,0,1.91,1c3.78,1-3.07,5.31-5.16,3.3-1.56-1.49-2.47-4-3.37-5.84-3.17-6.63-7.3-19.06-16-20.15-6.8-.85-8.9-4.55-11.29-10.73-.47-1.19-1.49-3-.82-4.16a29.29,29.29,0,0,1,7.67-8.79c.17-.14-.44-.15-.55,0a30.54,30.54,0,0,0-8,9.34c-.73,1.29,1.95,5.93,2.46,7.09,1.32,2.91,3.11,5.83,6,7.28a2.67,2.67,0,0,0,1.23.26c4.29-.45,7.14,1.54,9.79,4.41,5.38,5.83,7.21,13.9,11.42,20.46,2.57,4.06,7.12.91,9-2.23.06-.09-.11-.12-.16-.12-6.06-.47-8.82-8.1-10.7-12.77a66.48,66.48,0,0,0-7-13.14c-2.48-3.58-5.22-6.56-6.57-10.79-1.4-4.43-8.27-4.52-6.89-9.77C624.17,852.13,623.57,852.18,623.52,852.35Z"/></g><path class="cls-30" d="M589.83,779.75s4.22,68.3,9.22,78.52c-1.18,2.37,12.34-9.7,22.78,6.49s19.36,41.71,9.27,45.7c-5.9,2.22-12.1-9.58-15.58-15.79s-8.65-11.74-21.41-11.1-18.2,2.3-23.89,8-8,10.64-13.49,8.37-4.38-13-1.3-19.83,9.62-7.87,17-10.28,11.21-6.86,9.49-18.47-11.32-77.53-10.25-90.48C573.35,768.53,589.83,779.75,589.83,779.75Z"/><path class="cls-11" d="M589.52,779.74q1.14,18.4,2.88,36.8c.82,9.16,1.79,18.33,3.12,27.42.62,4.21.83,10.93,3.22,14.64a.43.43,0,0,0,.38.1c2.87-.14,5.69-2.16,8.73-2.42,11.07-.9,16.93,13.33,20.76,21.46A69,69,0,0,1,635.09,899a16.39,16.39,0,0,1-1,8.18c-2.77,6.71-9.81.68-12.43-2.83-6.77-9-9-18.61-21.43-20.72-9.58-1.63-21.88.36-29.37,6.86-3.2,2.8-5.54,6.43-9,9-8,5.92-8.83-7-8.63-10.12C554,879.18,559.74,873.94,569,871c4.46-1.4,8.65-2.59,11.52-6.48,3-4.09,2.12-10.14,1.45-14.79-3.13-21.17-6.07-42.39-8.37-63.66-.88-8.13-2.05-16.52-1.7-24.71-.29,6.64,12.64,15,17.64,18.42.14.08.74,0,.55-.11-6.65-4.57-15.76-10.81-18.16-18.87,0-.15-.6-.17-.61,0-.58,8.34.77,17,1.66,25.23,1.3,12.27,2.9,24.49,4.54,36.7q1.85,13.5,3.81,27c.8,5.41,1.37,11-2.1,15.65-4,5.36-13,5.6-18.6,8.59-7.09,3.79-12.68,21.24-4.14,26,2.48,1.4,5.11.29,7.14-1.21,6.15-4.51,9.07-10.69,16.76-13.21,9.29-3.06,22.61-3.56,30.26,3.08,5.08,4.39,7.45,11.79,11.44,17.1,3.18,4.24,10.77,8.35,13,.6s-1-16.34-3.69-23.44c-3.31-8.63-7.91-19.53-15.82-24.86-3.62-2.45-8.24-2.35-12.28-1.22-1.1.29-3.68,2.09-4.16,1a32.34,32.34,0,0,1-1.82-6.73c-4.72-23.28-5.74-47.68-7.21-71.34C590.13,779.58,589.52,779.56,589.52,779.74Z"/><path class="cls-11" d="M591.11,792.31c-3.57,3.48-10,2.87-14.27,1.83-.62-.16.19-.45.47-.36,4,1,9.66,1.57,12.94-1.64.19-.18,1.12-.11.86.17Z"/><path class="cls-11" d="M592.15,806c-2.32,4.81-9.91,3.2-13.67,2-.47-.16.47-.35.69-.26,3.45,1.14,10,2.49,12-1.82.12-.24,1.07-.16.95.12Z"/><path class="cls-11" d="M594.17,824.65c-4,3.79-10.25,3-14.78.74-.22-.1.57-.55.84-.41,4,1.93,9.6,3,13.2-.35.17-.16,1.12-.33.74,0Z"/><path class="cls-11" d="M596.42,844c-3.41,2.85-9,2.19-12.87,1.12-.62-.15.19-.41.49-.35,3.52,1,8.44,1.63,11.53-1,.19-.17,1.13,0,.85.19Z"/><path class="cls-11" d="M599.34,858.36c-5.11,2.45-10,6.58-12.37,11.79-.11.26-1,.38-.93.15,2.44-5.36,7.46-9.61,12.73-12.14.27-.12,1.14-.07.57.2Z"/><path class="cls-11" d="M597.35,853.17a18.33,18.33,0,0,1-12.47,5.36c-.65,0-.18-.4.23-.4a16.86,16.86,0,0,0,11.38-5.07c.17-.19,1.12-.16.86.11Z"/><path class="cls-11" d="M631.43,884.87c-5.4-2-10.86.5-14.08,5-.18.24-1.1.14-1-.05,3.56-4.95,9.8-7.44,15.7-5.22.48.17-.43.39-.67.31Z"/><path class="cls-11" d="M624,869.39c-6.85-1.46-13.11,2.63-16.38,8.47-.11.23-1,.5-.84.19,3.53-6.28,10.46-10.79,17.9-9.2.36.07-.42.61-.68.54Z"/><path class="cls-11" d="M613.63,857.89a21.4,21.4,0,0,0-17.77,18.21c0,.29-.94.55-.89.29a22.66,22.66,0,0,1,19-19c.63-.1,0,.46-.31.51Z"/><path class="cls-11" d="M571.64,870.72c-4.13,3.56-3.22,10.38-1.69,14.87.09.24-.85.52-.94.23-1.63-4.7-2.39-11.52,1.9-15.2.18-.16,1.11-.23.73.1Z"/><path class="cls-11" d="M585.07,867.35c-5.65,3-3.12,11.95-1.31,16.31.12.29-.85.34-1,.1-1.9-4.57-4.37-13.49,1.42-16.6.22-.12,1.14,0,.84.19Z"/><g class="cls-12"><path class="cls-31" d="M555.43,880.08c3.1-6.8,9.62-7.87,17-10.28s11.21-6.86,9.49-18.47-11.32-77.53-10.25-90.48c1.71,7.68,18.19,18.9,18.19,18.9s.19,3.06.54,8c-2-1.68-5-3.24-8.44-2.27-6.44,1.8-7.68,21.21,6.14,23.14-5,1.87-8.72,14.95-1.7,17.74-2.8,1.34-3.76,19,3.18,19.34,2.36.93-7.38,11.8.45,11.3,1.13,1.08-3.92,7.9-1.71,7.85s1.73,0,1.16,1.34-.9,8.5,3.77,4.45,10.24-8.7,7.87-5.93,0,9.87,10.36,7.57c.4,3.15.73,13.71,10.27,13,1,2.33,2,25.4,10.47,24.09l.79-.11a5.58,5.58,0,0,1-1.88,1.23c-5.9,2.22-12.1-9.58-15.58-15.79s-8.65-11.74-21.41-11.1-18.2,2.3-23.89,8-8,10.64-13.49,8.37S552.35,886.89,555.43,880.08Z"/><path class="cls-14" d="M555.73,880.16c5.92-11.19,23.59-6.86,26.59-20.26,1.73-7.81-1.59-18.6-2.69-26.38-3.12-22.2-6.7-44.65-7.69-67.08-.06-1.49-.08-3,0-4.45,0-1.07-.21,0,.17.83a16.35,16.35,0,0,0,2,3.15c3.19,4.43,7.76,8,12.07,11.31,3.69,2.84,3.42,3,3.78,8.09.16,2.67-2.95.14-4-.14a8.27,8.27,0,0,0-4.22.11c-6.76,2.61-5.55,14.68-1.57,19.09.6.67,6,5.14,6.86,4.5a13.19,13.19,0,0,0-4.67,12,7.34,7.34,0,0,0,2.73,4.91c1.06.88.19,1.42-.22,2.49-1.52,4-1.08,9.18.14,13.19a6.5,6.5,0,0,0,2.06,3.29c.38.26,2.55,1.09,2.62,1.56.59,3.3-4.6,6.41-2.59,9.94.3.5,1.21.64,1.66.78,2.09.55.23,3.17-.26,4.22-.24.52-1.57,2.73-.89,3.39.29.24,2,.55,2,.69-2,8.32,2.09,6.95,7.16,2.65.67-.59,4.4-4.48,3.72-2.75a4.87,4.87,0,0,0,.07,3.94c1.09,2.89,4.72,3.49,7.33,3.63,2.13.14,3.31-.88,3.6,1.64a23.83,23.83,0,0,0,1.24,5.21c1.25,3.49,4,5.23,7.49,5.73,2.72.38,2.39,6.46,2.86,9,.77,4.17,1.53,9.8,4.58,13.06a5.48,5.48,0,0,0,4.77,2c-5.29.33-5.44.81-8.61-2.51a36.12,36.12,0,0,1-3.9-5.4c-1.91-2.94-3.44-6.08-5.3-9-6.88-10.85-20.59-9.93-31.7-7.89-6.77,1.23-11.41,5.11-15.95,10.09-1.24,1.33-2.43,2.64-3.76,3.88q-7.35,2.86-9.13-2.09a11.91,11.91,0,0,1-.76-4c-.37-4.17,1-8.56,2.53-12.36.06-.12-.53-.28-.6-.09-2.18,5.17-5.87,19.15,3.11,20.46,3.43.5,5.67-1.83,7.87-4.15,4.78-5.06,8.73-9.27,15.65-11.16,9.15-2.49,21.39-3.07,28.89,3.43,4.25,3.67,6.46,9.72,9.47,14.35,2.8,4.36,7.78,10.57,13.14,6.35.15-.12-.38-.21-.43-.21-9.8,1.06-8.84-18-10.81-23.86,0-.11-.28-.14-.38-.14-8.09.07-9.2-6.71-9.91-12.83,0-.18-.38-.18-.52-.16-5.18.9-10.6-.08-10.64-5.32,0-1.15,1.38-2,1.32-2.91,0-.21-.44-.23-.57-.16-3.09,1.68-5.76,4.52-8.4,6.8-4.85,4.17-3-4.13-2.7-5.52,0,0-.1-.1-.14-.12-4.19-1.52,1.18-5.14.23-7.93-.06-.11-.28-.14-.38-.14-7.68-.16,3-10.43-.28-11.28-5.57-1.44-7.61-15.69-3-19.13.05,0,0-.12-.07-.14-6.4-3.34-4-14.66,1.73-17.59.19-.08-.19-.2-.25-.22-7.21-1.38-10.37-7-10.47-13.72s4.38-12.91,12.48-7c.07.06.61.23.59,0-.45-6.43.62-7-4-10.52-5.5-4.13-12.72-9.51-14.75-16.37,0-.14-.6-.22-.6-.05-.6,8.8.85,17.91,1.79,26.63,1.43,13.2,3.18,26.34,5,39.47,1.21,8.78,2.62,17.55,3.71,26.35.92,7.28-1.52,13.09-8.42,16-7.07,3-14.3,3.31-18.26,10.76C555.05,880.18,555.65,880.32,555.73,880.16Z"/></g><g class="cls-19"><path class="cls-14" d="M602.4,859.32s27,8.43,30.2,47.49c3.68,1.75.74-23.28-11-39.81C611.86,854.19,607.19,856.25,602.4,859.32Z"/><path class="cls-14" d="M602.17,859.42c19.41,6.23,28.37,29.1,30.12,47.43,0,0,.05.07.09.07,5.58,1.52-3.34-26.69-4.16-28.63-4.11-9.75-13.71-26.8-26.05-19-.29.17.32.23.46.14,15.2-9.56,26.13,20.2,29,30.58,1.31,4.68,2.38,9.8,2.06,14.7-.28,4.32-1.65-4.64-1.83-5.8a70.84,70.84,0,0,0-2.69-10.22c-4.07-12.17-13.78-25.33-26.58-29.43C602.46,859.17,601.87,859.34,602.17,859.42Z"/></g><g class="cls-20"><path class="cls-32" d="M631.93,885.92a12.47,12.47,0,0,0-14.36,5.52C615.46,892.2,622.47,879.49,631.93,885.92Z"/><path class="cls-14" d="M632,885.82a12.89,12.89,0,0,0-11.45,1.9,13.26,13.26,0,0,0-2.25,2.18c-.17.2-1,2.14-.77,1a7,7,0,0,1,1.78-2.92c3.22-3.83,8-4.8,12.35-2,.13.11.74.11.48-.06-5.28-3.36-13.21-1.66-15.24,4.89-.1.36,0,.71.37.81,1.06.25,2.07-2,2.71-2.69A11.87,11.87,0,0,1,631.82,886C632.06,886.11,632.43,886,632,885.82Z"/></g><g class="cls-20"><path class="cls-33" d="M625.65,871.45s-10.71-4.48-17.26,7.33C605.85,879.8,614,862.28,625.65,871.45Z"/><path class="cls-14" d="M625.68,871.33c-5.39-2.18-11.36-.25-15.18,3.89a19.19,19.19,0,0,0-1.83,2.49c-1,1.55-.42.34-.2-.32a13.42,13.42,0,0,1,2.36-3.95c3.84-4.8,9.48-5.78,14.58-2,.12.09.72.17.47,0-3.19-2.39-7.25-3.86-11.07-1.92-3.12,1.59-6.44,4.91-7.17,8.49a.71.71,0,0,0,.53.93.59.59,0,0,0,.5,0c-.1.07,1.19-1.92,1.17-1.91a17.65,17.65,0,0,1,2.48-2.83,12.87,12.87,0,0,1,13.27-2.61C625.94,871.71,626,871.46,625.68,871.33Z"/></g><g class="cls-20"><path class="cls-34" d="M615.6,858.39s-14.07,1.35-19.3,17.69C593.17,878.29,597.3,852.51,615.6,858.39Z"/><path class="cls-14" d="M615.41,858.27a21.17,21.17,0,0,0-8.35,3.06,24.23,24.23,0,0,0-8.85,9.46c-.47.83-2.52,4.82-2.38,5.08-1.33-2.61,1.23-7.73,2.39-9.94,3.45-6.63,10-9.6,17.28-7.44.24.07.62-.07.2-.2-5.9-1.75-11.46-.75-15.66,3.94-2.76,3.08-5.59,8.68-5,12.95.11.66.35,1.2,1.07,1.18s.68-.87.85-1.35a27.06,27.06,0,0,1,4.54-8.14c3.32-4.23,8.81-7.77,14.26-8.34C616.12,858.49,615.55,858.25,615.41,858.27Z"/></g><g class="cls-12"><path class="cls-35" d="M621.17,902.34a28.56,28.56,0,0,0-16.67-22.56c-15.74-7.38-25.11-3.47-35.84,7.27s-7,12.48-7,12.48,9.23-10.79,15.54-13.58,25.68-3.75,30.82-.18S620.16,904.18,621.17,902.34Z"/><path class="cls-14" d="M621.48,902.4c-1.17-15.54-17-26-31.48-26.54-9.47-.38-17.14,6.47-23.3,12.79-.82.87-8.75,9-5.32,10.94.1,0,.42.17.52,0,4.19-4.86,8.85-9.69,14.37-13,7-4.2,18.89-3.62,26.59-2.48,8.17,1.23,11.43,10.09,15.72,16.07.41.59,1.77,3.08,2.88,2.18.12-.08-.44-.29-.57-.17S611.83,889.4,610.67,888c-2.8-3.34-6.48-4-10.63-4.45a64.12,64.12,0,0,0-18.75,1c-6.21,1.17-10.72,5.37-15.1,9.68-1.66,1.63-6.31,8.27-4.58,2.49,2.31-7.69,12.88-15.55,19.73-18.76,15.94-7.53,38.24,7.07,39.54,24.31C620.89,902.47,621.49,902.54,621.48,902.4Z"/></g><g class="cls-19"><path class="cls-14" d="M586.06,788.87s1,21.82,3.49,33.35,3.14,26.74,6.09,30.57-1.54-16.1-2.35-22.4S590,795,589.79,793.08,587.76,786.69,586.06,788.87Z"/><path class="cls-14" d="M585.75,788.85c.78,15.86,3.5,31.18,5.67,46.85.45,3.18.57,15.7,4.33,17.52,2,1,1-3.44,1-4.17-.72-6.47-2.39-12.8-3.19-19.25-.83-6.78-1.33-13.61-1.94-20.41-.17-1.84-.53-24.21-5.79-20.61-.2.14.38.26.51.15,3.07-2.09,3.63,8.86,3.73,10.17.54,5.78,1,11.59,1.57,17.39.92,10.18,2.58,20.08,4.15,30.17a30.74,30.74,0,0,1,.54,5.74c0,1.41-1.28-1.33-1.21-1.21a23.07,23.07,0,0,1-1.39-4.94c-1.71-7.92-2.25-16.07-3.83-24-2.2-11-2.94-22.25-3.5-33.37C586.37,788.69,585.73,788.68,585.75,788.85Z"/></g><g class="cls-19"><path class="cls-14" d="M631.65,852.65A57.72,57.72,0,0,1,655,892.87C655.83,893.5,655.19,857.32,631.65,852.65Z"/><path class="cls-14" d="M631.39,852.73c13.28,8.74,21.36,24.79,23.31,40.16,0,.12.24.12.32.1,2.16-.22-1.39-15.28-1.75-16.6-3-11-9.74-21.18-21.42-23.84-.13,0-.72.13-.41.2,16.55,3.79,24,23.78,23.43,39.33,0,.95-.29-4-.5-5.09a56.42,56.42,0,0,0-3.25-10.29,57.87,57.87,0,0,0-7.78-13.11,48.2,48.2,0,0,0-11.43-11C631.77,852.47,631.18,852.6,631.39,852.73Z"/></g><path class="cls-25" d="M655.67,859.24s18.56,17.86,18.07,37.42C674.83,891.59,675,869.61,655.67,859.24Z"/><path class="cls-36" d="M753.12,644.7S742,744.56,639.71,783.06c0,0-30.77,11.74-36.68,25.92s-4.72,28.36-8.86,11.81c0,0-.59,16-4.74,4.74s-3-12.42-6.48-3.56-4,6.31-5.14-.78.4,4.72-3.92,4.34-3.17-11.83-13.41-22.07c0,0-51.58,11.81-98.86-.79A91.67,91.67,0,0,0,439.94,819c-9.44,10-7.09,4.72-6.51-4.15s-3.54,3-8.85,7.67-4.73-11.81-4.73-11.81-1.77,5.33-3.55,10.64-5.9,1.78-10.63-16c0,0-.48,18.65-3.54,9.45-2.95-8.86,0-18.91-16-39.59,0,0-67.17-37.22-91.59-105.75S280.4,492.25,393.85,437.89,745.23,424.51,753.12,644.7Z"/><path class="cls-37" d="M752.16,644.61c-3,26.15-15.17,52.39-29.86,73.82a173.16,173.16,0,0,1-58,52.62c-18.92,10.65-42.61,15.34-58.05,31.55-4.21,4.41-5.84,10.25-7.38,16-.73,2.69-1.26,5.46-2.06,8.16-.24.84.54,1.4-.26-.68-.63-1.71-1-3.54-1.47-5.31-.11-.43-1.88-.59-1.9-.06-.1,2.61-.1,6-1.5,8.26.47-.76-3.7-12.5-5.23-13-2.07-.72-2.53,1.11-3.23,2.77-.92,2.21-1.75,4.43-2.75,6.59-.49,1-.19,2.35-.67,1.21-1-2.35-.78-5.12-1.51-7.56-.14-.42-1.09-.38-1.4-.36h-.07c-.17,0-.46.09-.5.29-.62,2.89-2.19,8.79-4.65,3-2.25-5.26-3.87-10.27-7.25-15s-4.63-3.69-9.8-2.74c-26.66,4.86-54.55,5.57-81.26.76-2.69-.48-10.14-3.78-12.58-2.5a86.07,86.07,0,0,0-9.37,5.82,92.7,92.7,0,0,0-13.95,12.22c-.77.81-1.59,1.59-2.43,2.33-2.32,2.13-1.31,1.07-1.33-.26,0-2.51.5-5.07.69-7.54.51-6.62-3.58-2.35-5.45.55a49.47,49.47,0,0,1-4.3,5.88c-2.49,2.86-3-.17-3.39-2.38a36.78,36.78,0,0,1-.46-8.18c0-.59-1.75-.71-1.92-.19-.75,2.24-3.34,14.4-5.86,11.38-3.63-4.38-5-11.33-6.42-16.62-.12-.45-1.88-.61-1.9-.09A77.61,77.61,0,0,1,404,814c-.29,2.06,0,3.56-1,.92a39,39,0,0,1-1.5-7.16,72,72,0,0,0-3-12.65c-2.18-6.29-6.4-15.59-11.55-19.9-2.55-2.13-6-3.65-8.82-5.48a246.64,246.64,0,0,1-21.57-16.24c-21.44-18-39.91-39.73-52.78-64.65-10.94-21.22-16.76-44.9-18.6-68.61-3.91-49.75,12.22-99.39,46-136.29,32.51-35.49,77.81-56.62,124.89-63.94,83.7-13,177.88,10.86,237.12,73.47C732,534.33,750,589.06,752.16,644.61c0,.61,1.94.68,1.92.19-1.92-49.54-16.23-98.06-47-137.47-26-33.31-62-57.36-101.24-72.34-73.43-28.05-163.38-27.69-232.07,12.93-45.9,27.16-78.53,71.42-88.11,124.07-8.6,47.34,1.4,97.44,28.48,137.24,17.66,25.95,41.95,48.44,68.76,64.78,5,3.06,7.72,8.68,10.52,13.78,4.08,7.46,5.28,15.29,6.83,23.49.22,1.18,1.57,8.47,4.32,6.4s2-9.2,2-12.16l-1.9-.07c1.11,4,3.36,17.78,9.18,18.52,4.91.64,5.87-10.05,6.9-13.12l-1.92-.19c-.08,2.76-.81,13.38,4,13.12,3.39-.15,5.48-4.2,7.16-6.69.73-1.07,1.4-2.18,2.11-3.27,1.16-1.78.35-1.52.4-.45.15,3-.57,6-.74,9-.49,8.16,13.3-7.23,13.69-7.59a86.62,86.62,0,0,1,16.07-11.33c1.74-1,6.87,1.31,8.94,1.75,4.65,1,9.34,1.66,14.05,2.24a232.75,232.75,0,0,0,75.6-3.38c2.56-.54,7.3,11.48,8.3,14.17,1.12,2.93,1.7,6.84,5.14,7.67,2.08.51,3.29-1.06,3.92-2.77a11.89,11.89,0,0,0,.55-2.54c.35-2.58-1.18.53-1.41-.62.49,2.42.6,5,1.58,7.28.72,1.69,2.83.47,3.49-.43,2-2.79,2.79-6.66,4.25-9.76-.76-.62-.86-.52-.33.33.3.78.58,1.55.83,2.35.86,2.46,1.67,4.91,2.63,7.32.45,1.14,2.37,4.13,4.1,2.62,2-1.78,1.82-6.29,1.92-8.76l-1.88-.07c.5,2,.83,7.52,3.72,7.8,2.43.24,2.69-5.07,3-6.51,1.63-6.84,3.38-13.73,8.12-19.12,4.42-5.05,10.49-8.72,16.29-12,8-4.57,16.6-7.65,25.07-11.27a178.29,178.29,0,0,0,37.82-22.13c31.85-24.18,54.13-59.92,64-98.49a108.79,108.79,0,0,0,2.84-14.29C754.15,644.25,752.22,644.06,752.16,644.61Z"/><g class="cls-38"><path class="cls-39" d="M393.85,437.89C280.4,492.25,270.16,601,294.58,669.54c9.32,26.13,24.85,47.71,40.51,64.41-.13-.2-.19-.41-.32-.6-28.38-46.49-26-88.65-26-88.65,2.36-61.45,11.82-28,22.84-39s29.94-67,64.61-52.78,36.23,52,50.41,23.64,4.74,33.09,41,11c0,0,13.8-7.88,12.6-.79s14.77,6.5,24.82-3-5.92,13,14.76,8.28,37.64-18.7,42.36-21.87,3.15,16.15,17.33-.78,6.31,6.29,25.22-6.31,50.43,53.18,43.31,95.72,10.64-8.26,10.64,4.74-13,68.94-75.62,96.9c-38.67,17.28-21.27,15.36-14.19,15.36s-21.06,31.37-85.08,28.36c-55.6-2.59-86.07-19.25-113.51-42.45,0,0,17.78,23.55,37.87,33,0,0-.92,20-3.41,25.35a19.22,19.22,0,0,1-2.41,3.11c.6.28,1.34.14,2.28-.71,5.31-4.71,9.44-16.53,8.85-7.67s-2.93,14.19,6.51,4.15a91.67,91.67,0,0,1,21.68-16.36c47.28,12.6,98.86.79,98.86.79,9.26,9.25,9.2,19.44,12.3,21.62-2-9.46-2.93-21.46,4.65-22.41,8.72-1.09,13.87,10.15,12.35,23.74,3.82,9.43,4.39-5.62,4.39-5.62,4.14,16.55,3,2.37,8.86-11.81s36.68-25.92,36.68-25.92C742,744.56,753.12,644.7,753.12,644.7,745.23,424.51,507.3,383.54,393.85,437.89Z"/></g><path class="cls-40" d="M639.68,414.25S655,309.09,673.94,305.54s15.35,49.64,15.35,49.64,15-52,37.82-50.43c19.2,1.33,8.27,63.41,8.27,63.41s20.1-31.91,22.47-16.53c1.65,10.76-4.73,24.82-4.73,24.82s13-22.47,30.72-17.73-1.18,102.82-1.18,102.82,9.45-11.83,16.54,1.17-20.09,108.73-56.73,119.37S639.68,414.25,639.68,414.25Z"/><path class="cls-37" d="M640.62,414.3c4.21-28.65,9.53-57.92,19.12-85.31,2.3-6.62,5-13.54,9.35-19.14,5.95-7.61,12.82-2.16,15.64,5.08,4.74,12.21,4.44,27.29,3.61,40.19,0,.56,1.76.63,1.92.11a146.13,146.13,0,0,1,10-25.13c4.11-8.2,19.12-33.53,31.1-22.9,8.39,7.44,6.39,26,5.87,35.85a211.27,211.27,0,0,1-2.84,25.08c-.08.52,1.66.57,1.91.19a94.14,94.14,0,0,1,13.24-17.09c1.07-1.05,4.57-4.65,6.3-2.63,2,2.35,1.33,7.25,1.14,10a54,54,0,0,1-4.81,17.64c-.26.57,1.59.75,1.85.31A49.81,49.81,0,0,1,762.75,366c5.6-5.29,19-12.49,24.23-3.53,5.5,9.46,3.67,24.37,3.12,34.73-1.14,21.55-4.33,43.15-8.41,64.34-.1.55,1.63.5,1.89.18,4.51-5.44,11.36-5.62,14.86,1.44,1.16,2.34,1,5.46.9,8-.23,8.75-2.32,17.52-4.53,25.95-5.87,22.67-14.95,45.55-28.7,64.64-5.78,8-13.08,15.83-22.46,19.49-6.1,2.37-11.66-.6-16.48-4.32-13.25-10.21-22.5-26.25-30.79-40.45C673.91,497.86,656.1,456,640.6,414.2c-.18-.5-2.09-.45-1.86.12,9.35,25.23,19.94,50.09,31.28,74.51,8.86,19.08,18.36,37.94,29.41,55.84,7.73,12.54,16.72,26.84,29.48,34.88,9.48,6,18.54,2.51,26.79-4.17,15.42-12.46,24.73-32.63,31.94-50.6,6.64-16.6,12.56-34.81,13.6-52.8.29-5.27-.31-12.26-6-14.75-5.07-2.21-10.08,0-13.49,4.15l1.9.21c4.87-25.39,8.91-51.64,8.75-77.51,0-6.87.6-22.94-8-25.67-13.14-4.17-26,7.42-32.15,17.88l1.85.31c1.9-4.28,10.86-31.3,0-29.5-4.79.78-8.53,6-11.36,9.44A116.62,116.62,0,0,0,734.47,368c.63.05,1.26.12,1.88.18A212.15,212.15,0,0,0,739.41,337c.21-8.37,1.19-28.86-9.66-32.13-12.66-3.81-22.73,10.06-28.21,19.23a132.64,132.64,0,0,0-13.2,31l1.92.11c.9-13.85,1.19-30.28-4.81-43.06-2.34-5-6.86-8.17-12.43-6.89-4.92,1.14-7.94,7.08-10,11.11-9,17.39-12.92,37.87-16.91,56.86q-4.27,20.26-7.36,40.78c0,.07,0,.12,0,.19C638.61,414.72,640.53,414.89,640.62,414.3Z"/><g class="cls-41"><path class="cls-42" d="M799.2,462.71c-7.09-13-16.54-1.17-16.54-1.17s18.91-98.1,1.18-102.82a19,19,0,0,0-10.79.26c8.09.35,9.92,10.1,1.34,38.74-9.45,31.51-29.16,44.9-34.67,33.88s-1.57-30.73-7.09-23.64-11,9.44-13.39,3.15,2.38-19.7-6.31-11.81-18.9,6.29-19.69-7.89,3.94-9.45-11-3.94-22.07-18.91-18.13-47.27,12.61-33.88,12.61-33.88l.29-.83a8.5,8.5,0,0,0-3,.05c-18.91,3.55-34.26,108.71-34.26,108.71s66.16,178.46,102.79,167.83S806.29,475.72,799.2,462.71Z"/></g><path class="cls-43" d="M724.76,307.89s-14.18,0-26.79,37.83c-12,35.83,15,32.3,26.79,1.57S730.26,307.89,724.76,307.89Z"/><path class="cls-44" d="M679,308.38s9.94,4.6,7.61,33.67-15.36,19.63-16.2-5.8C669.59,312.63,675.21,306.39,679,308.38Z"/><path class="cls-45" d="M752.19,351.72s-9.36,2.92-22.62,37.79c-8.11,21.27,11.42,2.73,20-15.17C757.55,357.7,755.49,351.46,752.19,351.72Z"/><path class="cls-46" d="M773.46,362.73s-12.58,1.7-25.85,36.57c-8.11,21.27,14.64,4,23.23-13.93C778.83,368.72,776.77,362.49,773.46,362.73Z"/><path class="cls-47" d="M791.14,460.79s-21.38,7.84-12.57,32.07S805.08,460.27,791.14,460.79Z"/><path class="cls-37" d="M437.14,791c12.44,7.51,27.51,11.47,41.63,14.22,36,7,73.43,2.29,108-9.34,1-.32-.86-.78-1.33-.63-34.59,11.66-71.44,16-107.47,9-13.21-2.56-27.48-6.5-39.13-13.54-.43-.26-2.25,0-1.68.31Z"/><g class="cls-48"><path class="cls-37" d="M599.77,666.39a106.75,106.75,0,0,1,2.08,21.91c0,3.06-2.58,11.35,1.8,12.9,2.49.88,4.88-1.17,6.52-2.75,6-5.78,8.92-15.06,11-22.83-.65-.06-1.28-.15-1.92-.22.67,3.41,4,10,8.42,6.3C635.55,675,641.16,664,643.6,654c.12-.51-1.78-.82-1.92-.25a62.35,62.35,0,0,1-6.54,15.76,54.53,54.53,0,0,1-8.21,10.82c-3.61,3.79-5.38-2.78-5.76-4.72-.1-.54-1.76-.81-1.92-.22a65.82,65.82,0,0,1-7.82,18.74c-1.24,1.94-7.07,9.64-8.13,4.22-.44-2.38.26-5.17.41-7.54a90.75,90.75,0,0,0-.23-11.06,97.08,97.08,0,0,0-1.78-13.15c-.13-.62-2-.62-1.93-.22Z"/><path class="cls-37" d="M672.31,650.56c3.79-1.52,6.17-5.91,7.59-9.46,6-15.05.62-34.12-3.86-48.72-.15-.53-2-.69-1.84-.13,4.48,14.66,9,31.75,4.35,47-1.17,3.84-3.75,9-7.8,10.65-.66.26,1.09.88,1.56.69Z"/><path class="cls-37" d="M694,648.82c18.24,6.71,8.84-30.37,7.33-36-.17-.6-2-.5-1.92-.08.94,3.44,10,40.71-4,35.57-.43-.15-2.29.14-1.38.49Z"/></g><path class="cls-49" d="M387,614.37s-10.87,65.14,23.26,107,24.82-7.75,24.82-21.72,7.76,31,26.39,35.68,29.47-23.26,29.47-23.26-4.65,26.37,10.85,23.26,31-31,31-31-1.54,17.07-1.54,24.84,18.61,15.51,62-27.94,18.62-94.63-3.1-62-6.2-43.45-29.47-26.38-29.49,45-41.89,12.42-23.27-24.84-38.78,1.54-6.2,18.62-18.61-6.21-32.59-3.1-34.14,15.51-17.07-18.61-18.63-37.23S390.08,591.09,387,614.37Z"/><path class="cls-50" d="M372.57,642.74s-3.14,50.42,29.94,80.36S367.86,740.42,349,680.55,372.57,603.35,372.57,642.74Z"/><g class="cls-51"><path class="cls-52" d="M679.85,554.49c29.93,37.83,47.26,89.81,23.64,157.57-12.65,36.23-49.63,61.46-83.53,72.48s-52,15.78-26.77,15.78c11.26,0,12.48,1.45,10.62,7.08,7.39-13.46,35.9-24.34,35.9-24.34C742,744.56,753.12,644.7,753.12,644.7,749.2,535.31,688.51,470.17,614.51,439l14.91,98.19S649.91,516.69,679.85,554.49Z"/></g><path class="cls-53" d="M560.48,137.72s-95.73-13-125.26,112.27-54.36,152.45-75.64,163.09,3.56,16.55,17.72,4.72c0,0-34.7,37.49-30.72,67.36,2.38,17.73,29.54-15.36,29.54-15.36s-11.8,39-1.17,57.91,35.45-16.54,35.45-16.54,3.55,36.63,23.62,52,20.1-41.36,22.47-18.9,10.64,60.27,54.36,13c0,0-13,21.27,2.37,20.08s31.9-23.62,31.9-23.62-15.35,26-4.71,28.36,43.72-17.73,52-43.74c0,0-4.73,22.47,2.36,22.47s16.55-28.36,16.55-28.36-7.1,22.44,2.35,20.07,29.55-34.26,33.1-53.18c0,0,9.44,31.92,18.91,17.73s3.54-50.81-4.73-75.63c0,0,2.36,10.64,15.36,7.09s-13-17.73-20.1-72.08S668,143.63,560.48,137.72Z"/><path class="cls-54" d="M561.09,137.21c-18.65-2.48-39.14,2.7-55.82,10.68-17.53,8.35-32.14,21.63-43.48,37.28-18.64,25.72-25.39,56-33.05,86.2-6.9,27.2-14.7,54.33-25.24,80.4-6.07,15.06-13.23,30.09-23.29,42.94a64.49,64.49,0,0,1-21.15,17.88c-4.14,2.13-14.11,8.5-5.25,11.59,8,2.82,18.39-1.37,24.63-6.23-.76-.1-1.5-.18-2.26-.29-15.77,17.12-32.72,41.89-31.05,66.15,1.41,20.13,28.09-9,32.24-14h-2.49a145.73,145.73,0,0,0-5,25.08c-1.28,11-2.61,29.42,7.33,37.19,11.76,9.18,28.81-12.94,34.42-20.9-.85.05-1.68.09-2.53.12,1.85,18.56,8.7,40.16,23.7,52.14,12.15,9.71,18.81-6.31,21.3-15.89.62-2.38,1.11-4.83,1.8-7.19.6-2.15-1.3-.33-1.45-.75a16.47,16.47,0,0,1,.64,3.9c.95,8,2,16,5,23.6,6.43,16.26,20.79,15.34,33.67,6.71,6.78-4.53,12.63-10.5,18.18-16.41l-2.39-.16c-4,6.63-10,22.23,3.67,20.62s25.23-13.56,33.1-24.14c-.83,0-1.66,0-2.49,0-4.4,7.49-16.75,31.65,1.28,28.79,9-1.43,17.43-7.07,24.52-12.48,10.59-8.08,19.67-18.94,24-31.67l-2.53.14c-.9,4.39-5.1,25.83,4.95,22.62,5.1-1.62,7.89-8.3,10-12.66a131.69,131.69,0,0,0,6.47-16c-.83,0-1.67,0-2.5,0-2.08,6.71-5.81,27.18,7.38,19,7.39-4.58,12.71-13.59,17.14-20.77,5.95-9.63,11.19-20.31,13.46-31.46l-2.54.26c2.09,7,10.51,30.21,20.58,18.73,7-8,6-22.57,5.39-32.31-1-15.13-4.53-30.23-9.26-44.6-.24-.74-2.71-.38-2.53.28,1.67,6.9,8.57,8.75,14.81,7.89,3.7-.51,7.52-2,6.4-6.3-1.63-6.45-6.34-12.56-9.24-18.47A154.2,154.2,0,0,1,658.49,383c-2.87-16.38-2.8-33.23-3.29-49.79-.62-20.67-1.41-41.34-3.42-61.92-5.45-55.76-22.83-129.86-90.69-134.07-.77-.05-2.86.92-1.2,1,20.67,1.28,39.16,9.58,53.11,25,13.48,14.85,21.26,34.17,26.6,53.26,11.31,40.37,12,83,13.27,124.66.74,24.3,2.22,47.89,10.71,71,3.76,10.26,9.59,19.35,14,29.26,4.67,10.52-13.26,8.58-15.4-.12l-2.53.28c6.76,20.66,13,45.66,8.09,67.38-.86,3.78-2.49,7.8-5.4,10.46-3.13,2.87-7-3.75-8.21-5.69A63.64,63.64,0,0,1,648,499.22c-.23-.78-2.41-.47-2.54.26-3.41,16.66-13.11,33.6-24.31,46.26a28.44,28.44,0,0,1-6.39,5.64c-4.19,2.59-4.74-2.77-4.76-5.46,0-4.5,1.19-9.19,2.52-13.47.25-.77-2.27-.68-2.5,0-2.84,8.47-6.19,17.33-11.45,24.6-5.44,7.53-6.57-3.42-6.4-7.59a70,70,0,0,1,1.47-11.24c.12-.55-2.32-.48-2.52.14-6.4,18.9-24,35.61-42.75,42.22s-6.23-19.67-2-26.84c.37-.64-2.09-.58-2.49,0-6.59,8.85-15.39,17.83-25.75,22-16.36,6.59-10.22-11.47-6-18.42.39-.65-2-.53-2.38-.14-8.05,8.6-21.15,23.66-34.48,22.16-7.75-.89-11.72-9.63-13.84-16.07-2.3-7-3-14.28-3.92-21.51-.21-1.58-2.09-5.64-3.74-2.29-3.94,8.06-5,34.28-19.69,22.52-14.29-11.42-20.6-33.31-22.37-50.9-.08-.83-2.21-.31-2.52.12a95.74,95.74,0,0,1-10.62,12.46,41.29,41.29,0,0,1-10.62,7.95c-7,3.46-11.11-2-13.44-7.75-6.49-16.11-1.94-37.93,2.89-54,.28-.9-2.13-.43-2.49,0A119.94,119.94,0,0,1,361.11,484c-2.55,2.21-9.37,8.44-12.29,4.22s-1.2-12.45-.38-17c3.48-19.59,16.69-38.82,30-53.27.73-.79-1.82-.63-2.26-.29-5,3.93-17.16,9.81-23,4.26-3.66-3.48,7.34-8.51,9.51-9.69a61,61,0,0,0,10.73-7.54c10.11-8.86,17.34-20.74,23.41-32.57,11.61-22.58,19.44-47.12,26.5-71.42,9.47-32.57,14.38-66.93,29.95-97.39,14.29-28,37.65-50.65,67.81-60.42,12.09-3.93,26.1-6.35,38.84-4.65C560.67,138.34,562.73,137.42,561.09,137.21Z"/><g class="cls-51"><path class="cls-55" d="M656.2,376.45c-7.08-54.36,11.81-232.82-95.72-238.73,0,0-21.53-2.91-47.34,7.38a23.46,23.46,0,0,1,4.61,8.6c5.31,21,6.5,14.54,17.14,6.86,14.18-10.23,81.92-32.29,99.27,69.34,0,0,6.29,14.18,2.35,102.43-2.7,60.62,23.24,103.19,3.17,87.84s14.18,35.06-12.62,99.66c0,0-14.18,22.85-11.82,0s-.79-13.38-10.24,10.25-7.87,1.57-7.87-14.19-15.77,41-42.55,50.43c0,0-11,5.5-4.74-9.46s10.64-30.33-8.26-9.65-32.5,25.41-21.27-12.42-11.83,20.1-31.91,30.15S463,540.12,460,513.54s-6.51-5.91-11.82,21.25-31.92-1.76-29-56.72-10.64,21.27-26,35.47S371.4,502.3,381.45,468s-18.31,10.05-26.6,13.59-1.76-31.3,26-62.62-6.48.55-20.68,0c-3.58-.14-6-.57-7.47-1.24-6.76,7.4,12.68,10,24.59.05,0,0-34.7,37.49-30.72,67.36,2.38,17.73,29.54-15.36,29.54-15.36s-11.8,39-1.17,57.91,35.45-16.54,35.45-16.54,3.55,36.63,23.62,52,20.1-41.36,22.47-18.9,10.64,60.27,54.36,13c0,0-13,21.27,2.37,20.08s31.9-23.62,31.9-23.62-15.35,26-4.71,28.36,43.72-17.73,52-43.74c0,0-4.73,22.47,2.36,22.47s16.55-28.36,16.55-28.36-7.1,22.44,2.35,20.07,29.55-34.26,33.1-53.18c0,0,9.44,31.92,18.91,17.73,9.32-14,3.68-49.86-4.43-74.66a5.93,5.93,0,0,1-.3-1c.11.31.19.66.3,1,1,2.54,4.51,9,15.06,6.12C689.29,445,663.3,430.8,656.2,376.45Z"/><path class="cls-56" d="M661.24,442.41c-.11-.31-.19-.66-.3-1A5.93,5.93,0,0,0,661.24,442.41Z"/></g><path class="cls-57" d="M623.71,274.22s-4.13-1.78-.58-14.77,6.5-73.27-39-75c0,0-31.91-1.78-37.22,47.26,0,0-1.4,16-13.62,13s-6.48-7.09-7.07-26.6-19.5-41.36-45.49-31.9-34.29,37.21-36.66,67.36c0,0,0,4.13-7.08,9.46-2.8,2.07-7.68,7.43-11.14,24.55,3.82-8.31,9.56-17.34,16.86-18.26,18.91-2.37,33.88,7.09,33.88,37.82,0,15.42-.8,50.42,36.23,63.82,41.16,14.87,66.57-22.26,68.94-53.58s23-39,37.82-36.62S638.48,281.31,623.71,274.22Z"/><path class="cls-58" d="M605,182.35a20,20,0,0,0-4.93-7.43c-6.74-6.51-16.1-2.87-22.9,1.52-1.4.9-4.26-1.4-2.71-2.41,7.67-5,16.8-8.05,25.11-2.81a22.3,22.3,0,0,1,8.62,10.89c.77,2.16-2.62,1.82-3.19.24Z"/><path class="cls-59" d="M453,223.52c-6.71,24.34,2.8,48.19,21.24,53.26s38.79-10.57,45.49-34.91-2.81-48.21-21.25-53.27S459.67,199.16,453,223.52Z"/><g class="cls-51"><path class="cls-60" d="M515.74,233.91c5.66-29.68-8.85-41.2-8.85-41.2l.17,0c12.59,9.07,18.21,28.9,12.65,49.11-6.7,24.34-27.07,40-45.49,34.91-10.07-2.77-17.45-11.17-21-22.17C466.14,282.39,508.37,272.63,515.74,233.91Z"/></g><path class="cls-61" d="M454.36,223.32c-4.58,18-1.92,41.15,16.05,51,22.44,12.26,42.38-13.49,47.93-32.24,5.22-17.74,1.45-41.4-16.07-51-22.42-12.26-42.37,13.49-47.91,32.23-.24.82-3,1.18-2.78.38,5.36-18.17,21.34-38.93,42.71-36.64,26.24,2.83,32.28,33.19,26.81,54.61-4.67,18.32-21.82,38.88-42.71,36.63-26.24-2.81-32.26-33.16-26.81-54.6C451.78,222.89,454.57,222.49,454.36,223.32Z"/><path class="cls-62" d="M504.55,234.15c-5.32,17.56-18.82,28.8-30.16,25.09s-16.21-20.87-10.91-38.42,18.82-28.78,30.16-25.1S509.86,216.6,504.55,234.15Z"/><path class="cls-63" d="M497.66,230.54c-4,10.27-13.11,16.18-20.3,13.21s-9.75-13.71-5.74-24,13.13-16.21,20.31-13.25S501.68,220.23,497.66,230.54Z"/><g class="cls-64"><path class="cls-65" d="M474.32,206.6c-4.8,6.94-4.79,15.17,0,18.37s12.63.15,17.45-6.78,4.79-15.17,0-18.39S479.13,199.65,474.32,206.6Z"/></g><g class="cls-66"><path class="cls-67" d="M475.94,206c-4.05,5.83-3.93,12.8.25,15.56s10.8.28,14.86-5.55,3.94-12.81-.23-15.58S480,200.13,475.94,206Z"/></g><path class="cls-68" d="M476.5,205.7c-3.82,5.54-4,12-.3,14.42s9.75-.06,13.58-5.62,4-12,.3-14.42S480.34,200.17,476.5,205.7Z"/><path class="cls-69" d="M478.63,254.09c-11.95-3.14-10.79-19.77-9.53-27.62,1.91-11.64,9.51-20.82,20.1-26.37,2-1-3.54-3.06-4.87-2.37-13.78,7.24-20.69,18.89-21.91,33.94-.88,11,3.78,21.42,15.77,24.58C481.65,257.17,482.07,255,478.63,254.09Z"/><path class="cls-70" d="M481.05,248.63c-12.29-1.32-11.57-13.66-10.29-21.52,1.89-11.65,9.51-20.84,20.08-26.39,2-1-3.53-3-4.86-2.35-13.77,7.23-20.7,18.88-21.92,33.93-.87,10.95,3.12,22,15.69,21.13C483.33,253.19,487.9,249.34,481.05,248.63Z"/><path class="cls-71" d="M481.81,206c-13.05,9.24-20.88,24.63-14,40.38,0,.13.3.14.26,0-2-14.49,2.32-30.71,14-40C482.31,206.1,482,205.82,481.81,206Z"/><path class="cls-72" d="M502.46,227c0-.25-.41-.37-.48-.12-2.56,9.19-14.62,27.6-29,17.39a3,3,0,0,0-3.13-.36c-.09,0,.09,0,0,0-2.26,1.09-1,7.89,1.4,9.06C488.33,261.3,500.5,239,502.46,227Z"/><path class="cls-73" d="M502.62,228.63c0-.26-.42-.36-.48-.13-2.57,9.19-15.78,26-28,21.37a2.59,2.59,0,0,0-2.89-.47,1.13,1.13,0,0,1-.22.11c-2.28,1.11.84,4.08,3.22,5.32C488.88,262.51,500.66,240.64,502.62,228.63Z"/><path class="cls-74" d="M498.62,239.25c-2.52,4.78-6.4,7.92-11.08,10.83-3.45,2.13-6.66,2.28-10.76.93-4.77-1.59-4.4-5.81-6.69-9-.4-.57-1.53-.8-1.7,0-1.75,8,6.12,13.61,14,12.53,8.79-1.18,13.38-8.1,16.33-15.21C498.7,239.25,498.64,239.22,498.62,239.25Z"/><path class="cls-75" d="M551.26,234.69c.59,25.91,17,46.54,36.57,46.09s35-21.81,34.41-47.72-17-46.54-36.56-46.09S550.66,208.78,551.26,234.69Z"/><g class="cls-51"><path class="cls-76" d="M616,226.4c-3.2-30.82-20.85-37.84-20.85-37.84h.18c15,5.2,26.42,23,26.91,44.51.59,25.91-14.82,47.26-34.41,47.72-10.71.24-20.45-5.83-27.18-15.6C581.54,288.66,620.16,266.63,616,226.4Z"/></g><path class="cls-77" d="M552.58,234.1c.79,19.06,10.23,41,30.79,45.35,25.64,5.43,37.64-25.74,37.55-45.79-.06-19-10.75-41.1-30.78-45.35-25.64-5.44-37.66,25.74-37.56,45.79,0,.87-2.63,2-2.63,1.19-.09-19.44,9.5-44.53,31.17-48.58,26.61-5,41.47,23.09,42.44,45.75.81,19.37-10,44.63-31.19,48.57C565.76,286,550.9,258,550,235.29,549.92,234.45,552.53,233.22,552.58,234.1Z"/><path class="cls-78" d="M606.68,231.54c-.37,18.33-10.31,32.83-22.23,32.34s-21.27-15.7-20.92-34,10.3-32.8,22.22-32.34S607,213.21,606.68,231.54Z"/><path class="cls-63" d="M599.07,229.93c-1.09,11-8.24,19.15-16,18.21s-13.13-10.55-12-21.55,8.23-19.14,15.94-18.24S600.14,218.91,599.07,229.93Z"/><g class="cls-79"><path class="cls-80" d="M570.11,213.21c-2.75,8-.5,15.91,5,17.67s12.21-3.27,14.94-11.26.51-15.89-5-17.67S572.86,205.22,570.11,213.21Z"/></g><g class="cls-81"><path class="cls-82" d="M571.52,212.17c-2.32,6.71-.33,13.39,4.44,14.92s10.48-2.66,12.8-9.39.31-13.38-4.45-14.9S573.82,205.44,571.52,212.17Z"/></g><path class="cls-68" d="M572,211.76c-2.18,6.36-.57,12.62,3.63,14s9.35-2.72,11.53-9.1.56-12.61-3.61-13.95S574.16,205.39,572,211.76Z"/><path class="cls-83" d="M587.12,257.77c-12.36.2-15.75-16.1-16.64-24-1.33-11.72,3.51-22.62,12.17-30.83,1.63-1.52-4.21-2-5.31-.95-11.31,10.68-14.8,23.79-11.9,38.6,2.14,10.77,9.45,19.59,21.85,19.38C590.88,259.9,590.7,257.71,587.12,257.77Z"/><path class="cls-84" d="M588,251.84c-12.17,2.08-14.82-10-15.72-17.91-1.33-11.73,3.51-22.64,12.18-30.86,1.62-1.52-4.24-2-5.33-.93-11.29,10.67-14.8,23.78-11.88,38.58,2.13,10.79,9,20.32,20.82,16.1C591.41,255.61,594.76,250.67,588,251.84Z"/><path class="cls-85" d="M577.14,210.58c-10.06,12.41-13.41,29.35-2.55,42.65.09.12.33.06.26-.09-5.84-13.4-6.1-30.18,2.66-42.37C577.67,210.56,577.31,210.37,577.14,210.58Z"/><path class="cls-86" d="M602.72,225.19c0-.26-.5-.24-.5,0,0,9.53-6.6,30.51-23.2,24.59a2.92,2.92,0,0,0-3.11.5c-.07,0,.08-.07,0,0-1.89,1.66,1.17,7.85,3.82,8.34C598.43,262.06,604.08,237.28,602.72,225.19Z"/><path class="cls-87" d="M603.32,226.75c0-.26-.5-.24-.5,0,0,9.56-8.13,29.36-21.13,28.17a2.59,2.59,0,0,0-2.93.33l-.19.17c-1.89,1.66,1.93,3.69,4.55,4.24C599.29,263.08,604.69,238.84,603.32,226.75Z"/><path class="cls-88" d="M602.36,238.06c-1.15,5.27-4,9.36-7.74,13.42-2.75,3-5.79,4-10.1,3.82-5-.22-5.81-4.39-8.9-6.9-.54-.43-1.69-.34-1.63.47.5,8.19,9.58,11.43,16.84,8.28,8.14-3.53,10.67-11.43,11.59-19.07C602.42,238,602.36,238,602.36,238.06Z"/><path class="cls-54" d="M582.74,290.1a13.56,13.56,0,0,1,1.14-1.73,30.25,30.25,0,0,1,3.7-4.08c.81-.81,1.82-1.56,2.84-2.39a37,37,0,0,1,3.5-2.23l1.93-1.06,2.06-.88a38.33,38.33,0,0,1,4.34-1.5c1.49-.41,3-.62,4.49-1s3-.26,4.43-.39,2.82.08,4.14.13a34.77,34.77,0,0,1,3.65.48,19.36,19.36,0,0,1,3,.62l2.3.66c1.26.37,2,.6,2,.6s-.77,0-2.07-.13l-2.34-.23c-.9-.12-1.94-.08-3-.14s-2.31-.1-3.57,0-2.59.12-4,.19l-4.17.57c-1.39.33-2.83.55-4.23,1a37.3,37.3,0,0,0-4.12,1.33l-2,.76-1.88.9c-1.25.56-2.38,1.26-3.5,1.85s-2.09,1.28-3,1.94a41.72,41.72,0,0,0-4.22,3.32C583.26,289.54,582.74,290.1,582.74,290.1Z"/><path class="cls-54" d="M440.22,265.54a14.81,14.81,0,0,1,2-.41,29.21,29.21,0,0,1,5.33-.28c1.1,0,2.3.19,3.58.31a33.19,33.19,0,0,1,3.9.87c.69.18,1.38.39,2.06.58l2,.82a35.85,35.85,0,0,1,4,1.92c1.31.74,2.49,1.62,3.75,2.41s2.21,1.87,3.28,2.77,1.89,2,2.75,2.91a33.65,33.65,0,0,1,2.2,2.83,20,20,0,0,1,1.66,2.5c.43.79.81,1.46,1.12,2,.6,1.12.93,1.76.93,1.76s-.5-.53-1.3-1.5c-.42-.49-.91-1.07-1.48-1.77a24.8,24.8,0,0,0-2-2.14c-.76-.76-1.5-1.66-2.42-2.49s-1.85-1.66-2.83-2.56-2.15-1.63-3.28-2.47-2.31-1.54-3.54-2.22a41.4,41.4,0,0,0-3.76-1.9l-1.88-.81c-.64-.24-1.27-.47-1.88-.67-1.25-.49-2.51-.75-3.67-1.13-1.19-.23-2.32-.56-3.37-.69a40.57,40.57,0,0,0-5.17-.61C441,265.52,440.22,265.54,440.22,265.54Z"/><path class="cls-89" d="M480.94,311.32s5.05-43.83,43.83-48.89S586.3,291.1,577,325.65s-36.49,45-55.21,41.1C482.63,358.51,480.1,316.39,480.94,311.32Z"/><path class="cls-90" d="M482.19,311.56c1.73-14.34,9-28.87,19.8-38.36,12-10.5,29.78-13.06,44.79-8.66,14.31,4.18,24.44,16.27,28.82,30.1,8.53,26.83-6.59,60.71-33.43,70.13-25.81,9.1-49.88-10.42-57.32-34.22-1.81-5.8-3.52-12.87-2.66-19,.12-.74-2.42-1.18-2.53-.48-2,14.2,5.9,31.3,15.1,41.45a47.73,47.73,0,0,0,54.41,11.21c23.83-10.81,35.12-41.35,29.73-65.86-5.43-24.75-28.59-38.24-52.8-36.21-25.6,2.12-43.5,24.9-46.44,49.41C479.58,311.84,482.12,312.25,482.19,311.56Z"/><path class="cls-90" d="M485.81,292.59c-4.88,6.87-4.38,16.18-1.22,23.59,3.86,9.08,12.41,15,19.64,21.17,4.55,3.87,9.61,9.68,15.63,11.29,4,1.05,7.66.33,11.46-1.14,6.45-2.49,12.68-5.9,18.92-8.89,11.9-5.69,28.74-13.86,30.39-28.71.07-.69-2.49-.86-2.57-.1-1.46,13.14-15.06,20.58-25.62,26-5.48,2.84-11.14,5.33-16.71,8-6.39,3-11.91,6.26-18.55,1.94-5.66-3.71-10.58-8.74-15.74-13-6.6-5.5-12.49-11.28-15.46-19.48-2.31-6.31-1.68-14.66,2.3-20.23.42-.59-2-1-2.47-.38Z"/><g class="cls-51"><path class="cls-91" d="M552,265.92c21.54,14.13,22.69,29.43,5.9,42-15.45,11.59-16.45,25.29-27.83,31.62s-15.44-5.2-23.38-12.64c-10.12-9.48-15.81-15.81-15.81-15.81-13.28-20.86,12-39.19,12-39.19L498,275.47c-14.58,14.61-17,35.85-17,35.85-.84,5.07,1.69,47.19,40.88,55.43,18.72,3.92,45.93-6.54,55.21-41.1C583.82,300.28,573.35,275.38,552,265.92Z"/></g><path class="cls-91" d="M491.47,328.18s20.86,19.6,24.65,25.28-20.23-4.42-27.81-19.59C483.9,325,487.05,323.75,491.47,328.18Z"/><path class="cls-92" d="M528.76,266.23s-28.08.78-37.29,23.38c-6.94,17.07,7,19.6,19,35.41,10.3,13.55,8.85,9.49,10.75-3.79s5-31.62,27.16-35.4C564.26,283.09,547.09,266.23,528.76,266.23Z"/><path class="cls-93" d="M521,275.12c1.81,3.36-.81,8.28-5.86,11s-10.6,2.18-12.4-1.18.81-8.28,5.85-11S519.15,271.75,521,275.12Z"/><path class="cls-94" d="M519.71,163.12s-3.35-17.31-10-43.13c-5.51-21.27,10-43.72,29.54-41.35,16.5,2,20.1,17.33,20.1,17.33s4.13-13.2,21.27-12.61c21.84.76,26.58,29,22.45,43.13,0,0,11.81-2.94,18.9,11.23s-.59,34.86-.59,34.86-20.69-32.5-56.73-32.5c0,0-31.32,1.79-38.39,26C526.22,166.08,521.29,166.69,519.71,163.12Z"/><path class="cls-95" d="M520.67,163.23c-1.07-5.56-2.3-11.07-3.56-16.59-3.15-13.73-9.44-28.57-6.85-42.75,2.81-15.43,17.3-28.67,33.47-23.85,7,2.09,12.9,8.87,14.64,15.94.12.49,1.73.58,1.89.08,4.67-14.08,24.52-15.55,34.21-6.18,9,8.74,10.74,24.92,7.6,36.53-.15.51,1.39.48,1.62.43,12.08-2.77,19,11.76,20.11,21.31,1,8-.67,16.82-3.41,24.35.62,0,1.26.05,1.88.08-11-17.1-30.21-29.61-50.25-32.42-7.92-1.11-15.43.25-22.94,2.86a47.22,47.22,0,0,0-13.52,7.48,32.88,32.88,0,0,0-6.47,7.16c-2,2.92-3.78,12.76-8.44,5.46-.31-.48-2.14-.39-1.88,0,1.78,2.76,4.72,3.6,7.9,3.32.19,0,.43-.07.5-.28,6.3-19.69,29.24-28,48-24.74,17.88,3.06,35.42,15.92,45.21,31.16.27.42,1.69.66,1.9.09,4.22-11.62,5.64-25.65-.43-36.81-3.65-6.72-11.76-11.5-19.51-9.73.53.15,1.09.29,1.62.45,3.72-13.78.33-35.49-14.56-41.63-10.8-4.46-27-1.52-31.09,10.89l1.9.09c-5-20.23-30.51-22.34-43.49-8.92-11.66,12-9.33,27.56-5.66,42.23,2.8,11.21,5.46,22.45,7.67,33.78C518.87,163.66,520.76,163.64,520.67,163.23Z"/><g class="cls-96"><path class="cls-97" d="M621.93,137.72c-7.09-14.17-18.9-11.23-18.9-11.23,4.13-14.18-.61-42.37-22.45-43.13a23.92,23.92,0,0,0-12.75,2.78l.14.37s8.37-6.83,20.1,1.57c9.06,6.5,12.36,16.5,3.92,29.16-5.52,8.27-12.6,9.84-28,12.8,0,0-16.53-.59-31.91,15.17-10.83,11.1-10.43,19-14.37,8.49,1.29,6,2,9.42,2,9.42,1.58,3.57,6.51,3,6.51,3,7.07-24.21,38.39-26,38.39-26,36,0,56.73,32.5,56.73,32.5S629,151.9,621.93,137.72Z"/></g><path class="cls-98" d="M623.48,150s.39-17.82-12.38-20.57S622.54,172.5,623.48,150Z"/><path class="cls-99" d="M538.92,83.12S524.24,78,515.13,95.54s4.83,37.87,4.48,30.09C518.18,91.48,558.14,88,538.92,83.12Z"/><path class="cls-99" d="M588.84,86.51a23.13,23.13,0,0,0-21.26,1.57S564,90.45,565.2,93.6,573.49,84.93,588.84,86.51Z"/><path class="cls-100" d="M577.08,124.23c-3.15,1.36-6.1,1.5-6.62.29s1.61-3.27,4.74-4.62,6.12-1.5,6.64-.29S580.23,122.86,577.08,124.23Z"/><path class="cls-101" d="M591.71,111.41c-1.07,1.34-2.66,1.83-3.55,1.11s-.75-2.39.32-3.72,2.67-1.83,3.56-1.11S592.79,110.06,591.71,111.41Z"/><path class="cls-102" d="M559,128.19c-1.61.57-3.1.52-3.32-.11s.92-1.55,2.54-2.12,3.1-.54,3.32.08S560.64,127.62,559,128.19Z"/><g class="cls-103"><path class="cls-104" d="M551.42,93.6c2,12.07,6.31,6.73,9.25-.46A15.13,15.13,0,0,0,559.31,96s-3.6-15.34-20.1-17.33a20,20,0,0,0-3.53-.15l-.41.53S549.07,79.42,551.42,93.6Z"/></g><path class="cls-105" d="M504.16,151.9s-26,13.4-41,35.45,24.64-37.7,45.71-9.44c27.56,37,38.6,17.33,44.89,3.94,2.89-6.14,8.67-22.86-18.13-12.6-21.64,8.26-24.42,1.57-26.76-8.69C507.46,154.39,511.24,151.12,504.16,151.9Z"/><path class="cls-58" d="M508,181.44a20.2,20.2,0,0,0-5.79-6.8c-7.49-5.6-16.35-.88-22.54,4.32-1.28,1.08-4.41-.88-3-2.05,7-5.88,15.69-10,24.58-5.87a22.4,22.4,0,0,1,9.9,9.76c1,2.06-2.39,2.14-3.15.64Z"/><path class="cls-106" d="M624.7,286.07s-24.86-13.35-37,13,2.62,51.69,25.15,34.74S639.26,292.83,624.7,286.07Z"/><path class="cls-107" d="M611.86,289.13c.76,2.27-1.64,5.12-5.35,6.38s-7.39.45-8.16-1.82,1.65-5.1,5.37-6.36S611.1,286.86,611.86,289.13Z"/><path class="cls-108" d="M438.54,272.2s26.43-9.86,34.92,17.86-9.64,50.87-29.63,31S423.2,276.92,438.54,272.2Z"/><path class="cls-109" d="M450.82,277c-1.06,2.13.93,5.29,4.46,7s7.23,1.45,8.3-.67-.93-5.3-4.44-7.06S451.9,274.83,450.82,277Z"/><path class="cls-110" d="M416.7,335.48s-22.05,59.08-51.21,74.85S412,421.35,416.7,335.48Z"/><path class="cls-111" d="M418.27,379.6s-44.89,42.54-58.3,74,14.18,3.94,31.53-22.85S431.67,370.93,418.27,379.6Z"/><path class="cls-112" d="M429.31,388.26s-39.4,48.86-48.05,96.9S407.25,494.62,429.31,388.26Z"/><path class="cls-113" d="M444.42,405.69s-35.59,58.22-18.06,106.64C443,558.26,451.37,504.08,444.42,405.69Z"/><path class="cls-114" d="M514.39,403.62s23.89,68.93,2.42,109.61C496.47,551.76,502.58,492.25,514.39,403.62Z"/><path class="cls-115" d="M548.74,430.32s21.75,68.24-4.41,106.05C516.8,576.18,539.85,509.3,548.74,430.32Z"/><path class="cls-116" d="M490.75,385.11s-39.38,87.44-19.47,154.81C485.12,586.73,504.16,501.71,490.75,385.11Z"/><path class="cls-117" d="M572.3,433.17S577,480,562.85,536C553,575,608,528.43,572.3,433.17Z"/><path class="cls-118" d="M581.38,405s16.11,38.69,18.59,90C601.7,530.75,636.49,476.85,581.38,405Z"/><path class="cls-119" d="M433.25,278S411.2,378,378.1,399.3C378.1,399.3,430.87,384.32,433.25,278Z"/><path class="cls-120" d="M428.82,701.15c.07,9,3,18,3,26.86,0,6.67-8.25-2.74-9.28-4.07-3.85-5-6.41-11-8.53-16.94-.16-.42-1.84-.66-1.9-.13a14.88,14.88,0,0,1-1.46,5.09c-2.52,5-11.74-7.75-12.91-9.37a58.21,58.21,0,0,1-7.93-15.24c-.18-.5-2-.57-1.86,0a59.68,59.68,0,0,0,17.08,25.41c5,4.35,8.44-.68,9-5.66-.62,0-1.26-.07-1.88-.12,2.26,6.29,9.5,26.18,19.49,24.36,4.08-.74,1.33-8.64,1-10.65a114.64,114.64,0,0,1-1.9-19.3c0-.6-1.92-.73-1.92-.24Z"/><path class="cls-120" d="M389.94,735.34a15.32,15.32,0,0,1-.54,4.91c-1.65,6.18-11.63-4-13.86-6.17a58,58,0,0,1-10.64-14.29c-.27-.5-2.12-.48-1.87,0a60.49,60.49,0,0,0,19.39,21.59c5.91,4,9.77,1.18,9.45-5.81,0-.58-1.95-.7-1.93-.22Z"/></g></g></svg>