<svg xmlns="http://www.w3.org/2000/svg" xmlns:xlink="http://www.w3.org/1999/xlink" viewBox="0 0 546.73 336.1"><defs><style>.cls-1{isolation:isolate;}.cls-2{fill:url(#radial-gradient);}.cls-3{fill:#592d19;}.cls-10,.cls-11,.cls-14,.cls-15,.cls-16,.cls-17,.cls-18,.cls-19,.cls-4,.cls-6,.cls-7,.cls-8,.cls-9{opacity:0.5;}.cls-4{mix-blend-mode:multiply;}.cls-5{fill:url(#radial-gradient-2);}.cls-10,.cls-11,.cls-14,.cls-15,.cls-16,.cls-17,.cls-18,.cls-19,.cls-6,.cls-7,.cls-8,.cls-9{mix-blend-mode:screen;}.cls-6{fill:url(#radial-gradient-3);}.cls-7{fill:url(#radial-gradient-4);}.cls-8{fill:url(#radial-gradient-5);}.cls-9{fill:url(#radial-gradient-6);}.cls-10{fill:url(#radial-gradient-7);}.cls-11{fill:url(#radial-gradient-8);}.cls-12{fill:url(#radial-gradient-9);}.cls-13{fill:url(#radial-gradient-10);}.cls-14{fill:url(#radial-gradient-11);}.cls-15{fill:url(#radial-gradient-12);}.cls-16{fill:url(#radial-gradient-13);}.cls-17{fill:url(#radial-gradient-14);}.cls-18{fill:url(#radial-gradient-15);}.cls-19{fill:url(#radial-gradient-16);}</style><radialGradient id="radial-gradient" cx="180.36" cy="463.11" fx="158.96242465278831" fy="395.4463072090933" r="278.86" gradientUnits="userSpaceOnUse"><stop offset="0.24" stop-color="#cb752d"/><stop offset="0.37" stop-color="#c36f2a"/><stop offset="0.55" stop-color="#ae5d21"/><stop offset="0.65" stop-color="#9f511a"/><stop offset="0.74" stop-color="#934b1a"/><stop offset="0.9" stop-color="#733a1a"/><stop offset="1" stop-color="#5a2d1a"/></radialGradient><radialGradient id="radial-gradient-2" cx="189.45" cy="462.97" fx="168.48276115031086" fy="396.65318447700514" r="273.31" gradientUnits="userSpaceOnUse"><stop offset="0.48" stop-color="#9f511a"/><stop offset="0.62" stop-color="#9c4f1a"/><stop offset="0.74" stop-color="#924a1a"/><stop offset="0.85" stop-color="#81411a"/><stop offset="0.95" stop-color="#69351a"/><stop offset="1" stop-color="#5a2d1a"/></radialGradient><radialGradient id="radial-gradient-3" cx="263.41" cy="466.54" r="120.13" gradientUnits="userSpaceOnUse"><stop offset="0.61" stop-color="#9f511a"/><stop offset="0.63" stop-color="#964d19"/><stop offset="0.99"/></radialGradient><radialGradient id="radial-gradient-4" cx="346.6" cy="541.11" fy="552.0816079268869" r="96.18" xlink:href="#radial-gradient-3"/><radialGradient id="radial-gradient-5" cx="234.71" cy="575.77" r="94.77" xlink:href="#radial-gradient-3"/><radialGradient id="radial-gradient-6" cx="367.24" cy="589" r="86.47" gradientTransform="translate(378.55 -255.19) rotate(39.24)" xlink:href="#radial-gradient-3"/><radialGradient id="radial-gradient-7" cx="330.54" cy="591.56" r="86.43" gradientTransform="translate(176.18 -165.55) rotate(20.85)" xlink:href="#radial-gradient-3"/><radialGradient id="radial-gradient-8" cx="289.43" cy="587.45" r="86.42" gradientTransform="matrix(0.97, 0.24, -0.24, 0.97, 109.23, -117.98)" xlink:href="#radial-gradient-3"/><radialGradient id="radial-gradient-9" cx="641.59" cy="488.32" fx="620.1928853362717" fy="420.6594642235488" r="278.87" gradientTransform="matrix(-1, 0, 0, 1, 1491.05, 0)" xlink:href="#radial-gradient"/><radialGradient id="radial-gradient-10" cx="650.68" cy="488.18" fx="629.7132721351655" fy="421.86634992446403" r="273.32" gradientTransform="matrix(-1, 0, 0, 1, 1491.05, 0)" xlink:href="#radial-gradient-2"/><radialGradient id="radial-gradient-11" cx="724.66" cy="491.74" r="120.12" gradientTransform="matrix(-1, 0, 0, 1, 1491.05, 0)" xlink:href="#radial-gradient-3"/><radialGradient id="radial-gradient-12" cx="807.83" cy="566.32" fy="577.2899367490841" r="96.12" gradientTransform="matrix(-1, 0, 0, 1, 1491.05, 0)" xlink:href="#radial-gradient-3"/><radialGradient id="radial-gradient-13" cx="695.96" cy="600.98" r="94.79" gradientTransform="matrix(-1, 0, 0, 1, 1491.05, 0)" xlink:href="#radial-gradient-3"/><radialGradient id="radial-gradient-14" cx="740.44" cy="316.75" r="86.41" gradientTransform="matrix(-0.77, 0.63, 0.63, 0.77, 1112.49, -255.19)" xlink:href="#radial-gradient-3"/><radialGradient id="radial-gradient-15" cx="770.58" cy="450.96" r="86.39" gradientTransform="matrix(-0.93, 0.36, 0.36, 0.93, 1314.87, -165.55)" xlink:href="#radial-gradient-3"/><radialGradient id="radial-gradient-16" cx="743.13" cy="500.7" r="86.45" gradientTransform="matrix(-0.97, 0.24, 0.24, 0.97, 1381.81, -117.98)" xlink:href="#radial-gradient-3"/></defs><title>ChickWingsClosed</title><g class="cls-1"><g id="Layer_1" data-name="Layer 1"><path class="cls-2" d="M384.39,400.09s3.57-17.75-24.81-8.29-115.81,78-117,179.64c-.68,58.82,11.3,89.9,25.43,72.84,0,0,4.49,24.46,17.9,41.79s22.85,12.61,22.85,12.61-21.28-38.62-19.7-88.24c0,0,8.66,1.57,20.49-37.82,0,0,11,1.57,22.85-24.42s11-59.1,15-47.29,23.39-27.66,31.52-56.7C384.39,424.51,384.39,400.09,384.39,400.09Z" transform="translate(-241.48 -389.03)"/><path class="cls-3" d="M385.36,400.11c2.9-15.48-19.32-11-27-8.41-14.85,5.09-28.27,16-40,26.07C278.17,452.42,248.7,501,242.65,554.25c-1.75,15.4-1.3,31.13-.2,46.56.86,11.77,2.38,23.79,6.17,35,3.37,10,11.44,18.9,20.31,8.59l-1.88-.17c2.8,14.86,8.89,29.8,17.94,41.89,4.62,6.19,15.33,17.08,24.45,12.83.14-.07.36-.17.26-.36C299.55,680,294,658.26,291.31,637.44c-.38-2.94-.6-26.36-2.5-26.64a4.82,4.82,0,0,0,2-.24c4.64-1.52,7.63-7.71,9.69-11.59a123.56,123.56,0,0,0,7.14-17.29c.4-1.18,2.94-8.59,2-8.67a6.43,6.43,0,0,0,1.7-.1c7.66-1.26,13-8.77,16.86-14.8,8.62-13.61,12.35-29.78,15.2-45.42.81-4.36,1-9.37,2.81-13.47.29-.67-.71-.42-.32.36a18.63,18.63,0,0,1,.78,2,2.83,2.83,0,0,0,1.74,1.66c4.2,1,7.13-3.94,9.1-6.81,6.49-9.46,11-20.49,15.19-31.13a177.69,177.69,0,0,0,12.66-65.23c0-.56-1.92-.61-1.92-.07a175.45,175.45,0,0,1-10,58,214,214,0,0,1-14.28,32.35,62.32,62.32,0,0,1-6.09,9.25c-.63.74-3,3.91-4.27,2.3a20.55,20.55,0,0,1-1.32-3c-1.12-2.14-3.1-.29-3.58,1.11-2.87,8.42-3.32,18-5.36,26.65-3.07,13-7.9,26-16.11,36.73-2.55,3.31-8.29,9.32-12.63,8.81-.32,0-1.1-.11-1.23.33-3.3,10.84-6.85,22.13-13.2,31.64-1.05,1.56-4.63,6.06-6.05,5.85-.24,0-1.22-.11-1.24.32-.71,29.53,5.58,60,18.79,86.53,1.12,2.22,1.34,2-2,1.93-9.34-.18-16.93-10.89-21.48-17.74-7.16-10.82-12-24.07-14.44-36.8-.11-.59-1.57-.54-1.88-.17-7.6,8.82-13.22.46-16.21-7.37-5.07-13.19-6.11-28.19-6.9-42.16-1.87-33.07,2.25-64.93,15.51-95.43,10.66-24.49,26.34-46.66,44.73-65.93,13.59-14.25,29.15-27.52,46.57-36.93,8.3-4.49,36-13.95,32.65,3.71C383.34,400.52,385.26,400.69,385.36,400.11Z" transform="translate(-241.48 -389.03)"/><path class="cls-3" d="M260.58,511.67c-15.18,32.76-14.94,74.56-4.41,108.47,2.08,6.68,7,22.83,16.63,22.21,5.05-.32,6.67-9.15,7.74-12.4a91.85,91.85,0,0,0,4.72-21.59L283.5,608c1.43,2.18,3.45,2.86,5.95,2.87,1.24,0-.14-.92-.75-.92a3.91,3.91,0,0,1-3.51-1.83c-.16-.26-1.73-.9-1.76-.34A84.66,84.66,0,0,1,281,621.44c-1.29,5.33-2.78,17-8.51,19.77-4.93,2.35-10.06-9.57-11.33-12.35-3.48-7.72-5.48-16.1-7.08-24.35-5.82-29.76-4.6-64.26,8.37-92.27.2-.45-1.6-1.12-1.84-.57Z" transform="translate(-241.48 -389.03)"/><path class="cls-3" d="M303.88,518.28a166.44,166.44,0,0,0-3,25c-.42,9-1.08,24.07,7.88,29.64.42.26,2.2-.23,1.58-.61-9.06-5.62-7.92-21.56-7.48-30.62a156.93,156.93,0,0,1,2.89-23.47c.11-.61-1.77-.45-1.88,0Z" transform="translate(-241.48 -389.03)"/><path class="cls-3" d="M280,552.94c-2.37,17.6-3.72,38.58,3.35,55.25.24.57,2.08.16,1.9-.24-7.07-16.65-5.72-37.63-3.33-55.24.05-.45-1.83-.4-1.92.23Z" transform="translate(-241.48 -389.03)"/><g class="cls-4"><path class="cls-5" d="M359.58,391.8c-6.21,2.08-15.28,7-25.64,14.48l0,.1s32.31-22.84,30.73-5.51S347.38,445,345,467.06s-3.94,14.17-5.51-5.52c0,0-3.17,70.11-19.7,91.38s-15.76-11-11-38.6c3.93-23-10.24,1.95-10.24,40.17,0,41.77-22.27,48.76-17.54-1.66S270.16,564,273.31,593.1c4.42,40.86-18.12,49.63-24.42-14.19,0,0,.79,24.44,7.89,45.71,5.48,16.48.1,24.42-7.37,10.71,4.7,13.78,11.36,17.69,18.61,8.95a121.55,121.55,0,0,0,7,22.64c-1.61-6.93-3.17-19.21,4.55-24.19,0,0,4.74,35.47,29.16,55.95,0,0-21.28-38.62-19.7-88.24,0,0,8.66,1.57,20.49-37.82,0,0,11,1.57,22.85-24.42s11-59.1,15-47.29,23.39-27.66,31.52-56.7c5.5-19.7,5.5-44.12,5.5-44.12S388,382.34,359.58,391.8Z" transform="translate(-241.48 -389.03)"/></g><path class="cls-6" d="M338.72,405.59s-67,43.34-85.11,142.61c0,0-7.09,47.27,5.52,55.15s3.15-28.36,17.33-71.7,3.94.8,7.89,15,10.23-36.25,27.58-66.18,7.07-18.9-5.54-7.09,8.69-17.33,26-43.34S361.55,393,338.72,405.59Z" transform="translate(-241.48 -389.03)"/><path class="cls-7" d="M325.31,467.83s-14.18,39.4-15,67.76,20.23-10.25,22.07-56.72C334,438.69,325.31,467.83,325.31,467.83Z" transform="translate(-241.48 -389.03)"/><path class="cls-8" d="M262.28,516.69s-18.91,42.54-4.73,89.81C257.55,606.5,252,567.1,262.28,516.69Z" transform="translate(-241.48 -389.03)"/><path class="cls-9" d="M344,407.51s-37.9,19.13-55.15,60.68C288.81,468.19,307.62,437.2,344,407.51Z" transform="translate(-241.48 -389.03)"/><path class="cls-10" d="M317.21,463.49s-29.93,30.13-33.18,75C284,538.51,292.11,503.15,317.21,463.49Z" transform="translate(-241.48 -389.03)"/><path class="cls-11" d="M285.88,475.68S259.8,509.18,262,554.13C262,554.13,265.74,518.05,285.88,475.68Z" transform="translate(-241.48 -389.03)"/><path class="cls-12" d="M645.4,425.29s-3.55-17.73,24.82-8.27,115.82,78,117,179.63c.69,58.81-11.29,89.9-25.42,72.85,0,0-4.52,24.45-17.9,41.78S721,723.89,721,723.89s21.26-38.62,19.68-88.23c0,0-8.66,1.55-20.48-37.83,0,0-11,1.58-22.84-24.41s-11-59.1-15-47.29S659,498.44,650.91,469.4C645.4,449.71,645.4,425.29,645.4,425.29Z" transform="translate(-241.48 -389.03)"/><path class="cls-3" d="M646.37,425.32c-3.65-19.47,28-6.61,36.42-1.69,18,10.44,33.86,24.82,47.78,40.14a224.62,224.62,0,0,1,43,68.57C786,563.61,788,596.76,785.08,630c-.62,7.26-6.82,57.47-22.36,39.43-.29-.34-1.78-.59-1.9,0a110.12,110.12,0,0,1-13.37,35.13c-4.55,7.68-11,15.91-19.71,18.94a8.87,8.87,0,0,1-6,.14c.52.22.5-.21.92-1,13.53-26.46,19.73-57.4,19-87,0-.5-1.15-.41-1.43-.38-1,.16-4.76-4.25-5.85-5.79-6.52-9.29-10-21-13.22-31.74-.12-.32-1-.34-1.19-.31-4.85.57-10.06-5.6-12.64-8.73-8.49-10.33-13-24-16.11-36.74-2.18-8.76-2.9-18-5.36-26.63-.49-1.66-2.28-3.07-3.59-1.24s-1,5-3.91,2.61-5.1-6.43-7-9.76c-5.59-9.51-9.86-19.85-13.75-30.14a174.08,174.08,0,0,1-11.24-61.5c0-.57-1.92-.6-1.92-.07.06,27.12,6.67,52.6,17.67,77.24a151.83,151.83,0,0,0,8.79,17c1.74,2.87,4,6.74,7,8.46a4.15,4.15,0,0,0,3.78.44,3.5,3.5,0,0,0,1.65-2.12c.85-2.18,0-3,.77-.31,3.57,12.43,4.52,25.39,8.53,37.79,3.79,11.65,10,26.16,21.18,32.67a13.7,13.7,0,0,0,5.16,1.76,9,9,0,0,0,1.37.05c-1.35,0,2.78,11.38,3.22,12.61,2.87,7.94,6.34,17.64,12.93,23.39a6.13,6.13,0,0,0,4.69,1.76c-.49-.13-1-.25-1.44-.39.73,29.61-5.3,61.9-19.66,88.15-.11.19.09.31.22.38,9.3,4.34,19.58-6.6,24.48-12.73,9.3-11.58,15.2-27.32,17.94-41.86-.63,0-1.27,0-1.9,0,10.49,12.18,18.42-1.85,21.5-12.12,4.24-14.2,5.15-29.49,5.67-44.21.6-16.86-.15-33.58-3.44-50.17-10-50.39-41.82-95.74-81.8-127.18-10.85-8.53-22.7-16.57-36.1-20.41-7.84-2.27-24.67-3.22-22.23,9.77C644.55,425.86,646.46,425.77,646.37,425.32Z" transform="translate(-241.48 -389.03)"/><path class="cls-3" d="M767.39,537c12.78,27.6,13.75,60.84,8.73,90.26-2,11.79-5.19,30.71-15.73,38.4-8.07,5.9-13.59-26.4-14-32.18,0-.52-1.56-.9-1.85-.47a4.57,4.57,0,0,1-4.38,2.18c-1,0,.66,1,1.15.94,2.26,0,3.78-.57,5.08-2.55-.62-.15-1.23-.29-1.83-.45a93.79,93.79,0,0,0,4.05,19.46c1.36,4.67,2.62,12.16,7.65,14.56,8.88,4.26,15.15-14.8,16.88-19.79,11.66-33.75,11.28-77.21-3.91-110-.25-.54-2-.77-1.83-.36Z" transform="translate(-241.48 -389.03)"/><path class="cls-3" d="M724,543.6a171.42,171.42,0,0,1,2.85,22.24c.6,9.27,1.93,26.06-7.33,31.8-.87.54,1,.62,1.42.37,8.71-5.42,8.23-19.58,8-28.45a153.21,153.21,0,0,0-3-26.22c-.13-.57-2-.26-1.92.26Z" transform="translate(-241.48 -389.03)"/><path class="cls-3" d="M747.85,578.15c2.37,17.55,3.72,38.55-3.34,55.14-.2.52,1.66.5,1.88,0,7.1-16.71,5.75-37.68,3.38-55.36-.07-.54-2-.31-1.92.24Z" transform="translate(-241.48 -389.03)"/><g class="cls-4"><path class="cls-13" d="M670.22,417c6.22,2.08,15.28,7,25.65,14.46l-.06.12s-27.57-22.84-26-5.52,13.58,14.18,12.61,68.54c-.4,22.19,6.31,11.83,7.88-7.89,0,0,3.15,70.13,19.68,91.4s15.78-11,11-38.6c-4-23,10.24,2,10.24,40.18,0,41.75,22.25,48.75,17.52-1.68s10.83,11.14,7.68,40.28c-4.41,40.85,18.12,49.63,24.44-14.18,0,0-.8,24.42-7.89,45.69-5.5,16.48-.1,24.44,7.35,10.71-4.68,13.78-11.34,17.7-18.59,9a122,122,0,0,1-7.06,22.64c1.63-6.94,3.19-19.23-4.55-24.2,0,0-4.72,35.46-29.14,55.95,0,0,21.26-38.62,19.68-88.23,0,0-8.66,1.55-20.48-37.83,0,0-11,1.58-22.84-24.41s-11-59.1-15-47.29S659,498.44,650.91,469.4c-5.51-19.69-5.51-44.11-5.51-44.11S641.85,407.56,670.22,417Z" transform="translate(-241.48 -389.03)"/></g><path class="cls-14" d="M691.1,430.8s67,43.34,85.08,142.62c0,0,7.1,47.26-5.53,55.13s-3.13-28.37-17.31-71.69-4,.78-7.88,15-10.25-36.23-27.58-66.17-7.1-18.92,5.52-7.09-8.67-17.34-26-43.33S668.24,418.2,691.1,430.8Z" transform="translate(-241.48 -389.03)"/><path class="cls-15" d="M704.49,493.05s14.18,39.4,15,67.76-20.23-10.26-22.05-56.73C695.81,463.91,704.49,493.05,704.49,493.05Z" transform="translate(-241.48 -389.03)"/><path class="cls-16" d="M767.52,541.89s18.89,42.54,4.74,89.82C772.26,631.71,777.75,592.32,767.52,541.89Z" transform="translate(-241.48 -389.03)"/><path class="cls-17" d="M685.85,432.71s37.89,19.14,55.15,60.7C741,493.41,722.17,462.42,685.85,432.71Z" transform="translate(-241.48 -389.03)"/><path class="cls-18" d="M712.6,488.71s29.9,30.12,33.18,75C745.78,563.71,737.7,528.36,712.6,488.71Z" transform="translate(-241.48 -389.03)"/><path class="cls-19" d="M743.92,500.9s26.09,33.5,23.94,78.43C767.86,579.33,764.07,543.27,743.92,500.9Z" transform="translate(-241.48 -389.03)"/></g></g></svg>