<svg xmlns="http://www.w3.org/2000/svg" xmlns:xlink="http://www.w3.org/1999/xlink" viewBox="0 0 807.77 341.7"><defs><style>.cls-1{isolation:isolate;}.cls-2{fill:url(#radial-gradient);}.cls-3{fill:#592d19;}.cls-4{fill:url(#radial-gradient-2);}.cls-5{fill:#5d3411;}.cls-6{fill:url(#radial-gradient-3);}.cls-7{opacity:0.3;mix-blend-mode:multiply;}.cls-8{fill:url(#radial-gradient-4);}.cls-10,.cls-11,.cls-12,.cls-13,.cls-18,.cls-19,.cls-20,.cls-21,.cls-22,.cls-9{opacity:0.5;mix-blend-mode:screen;}.cls-9{fill:url(#radial-gradient-5);}.cls-10{fill:url(#radial-gradient-6);}.cls-11{fill:url(#radial-gradient-7);}.cls-12{fill:url(#radial-gradient-8);}.cls-13{fill:url(#radial-gradient-9);}.cls-14{fill:url(#radial-gradient-10);}.cls-15{fill:url(#radial-gradient-11);}.cls-16{fill:url(#radial-gradient-12);}.cls-17{fill:url(#radial-gradient-13);}.cls-18{fill:url(#radial-gradient-14);}.cls-19{fill:url(#radial-gradient-15);}.cls-20{fill:url(#radial-gradient-16);}.cls-21{fill:url(#radial-gradient-17);}.cls-22{fill:url(#radial-gradient-18);}</style><radialGradient id="radial-gradient" cx="1024.32" cy="185.05" fx="908.680367719304" fy="241.04986376084366" r="206.33" gradientTransform="matrix(-0.94, 0.34, 0.34, 0.94, 1730.49, -134.3)" gradientUnits="userSpaceOnUse"><stop offset="0.24" stop-color="#cb752d"/><stop offset="0.36" stop-color="#c36f2a"/><stop offset="0.53" stop-color="#ae5d21"/><stop offset="0.63" stop-color="#9f511a"/><stop offset="0.72" stop-color="#9b4f1a"/><stop offset="0.81" stop-color="#8f491a"/><stop offset="0.9" stop-color="#7b3e1a"/><stop offset="0.99" stop-color="#5f301a"/><stop offset="1" stop-color="#5a2d1a"/></radialGradient><radialGradient id="radial-gradient-2" cx="150.97" cy="156.62" r="285.53" gradientTransform="translate(601.24 245.9) rotate(-1.22)" gradientUnits="userSpaceOnUse"><stop offset="0.24" stop-color="#cb752d"/><stop offset="0.4" stop-color="#c36f2a"/><stop offset="0.65" stop-color="#ae5d21"/><stop offset="0.79" stop-color="#9f511a"/><stop offset="0.85" stop-color="#9c4f1a"/><stop offset="0.89" stop-color="#924a1a"/><stop offset="0.94" stop-color="#81411a"/><stop offset="0.98" stop-color="#69351a"/><stop offset="1" stop-color="#5a2d1a"/></radialGradient><radialGradient id="radial-gradient-3" cx="150.95" cy="156.44" r="285.76" xlink:href="#radial-gradient-2"/><radialGradient id="radial-gradient-4" cx="241.98" cy="87.93" r="334.06" gradientTransform="translate(601.24 245.9) rotate(-1.22)" gradientUnits="userSpaceOnUse"><stop offset="0.48" stop-color="#9f511a"/><stop offset="0.62" stop-color="#9c4f1a"/><stop offset="0.74" stop-color="#924a1a"/><stop offset="0.85" stop-color="#81411a"/><stop offset="0.95" stop-color="#69351a"/><stop offset="1" stop-color="#5a2d1a"/></radialGradient><radialGradient id="radial-gradient-5" cx="481.24" cy="227.69" fx="398.7090410447807" fy="249.9671212387444" r="160.15" gradientTransform="translate(286.16 181.34) rotate(-3.82)" gradientUnits="userSpaceOnUse"><stop offset="0.53" stop-color="#9f511a"/><stop offset="0.56" stop-color="#964d19"/><stop offset="0.99"/></radialGradient><radialGradient id="radial-gradient-6" cx="1172.75" cy="239.85" r="140.74" gradientTransform="translate(281.59 1471.96) rotate(-75.65)" gradientUnits="userSpaceOnUse"><stop offset="0.44" stop-color="#9f511a"/><stop offset="0.48" stop-color="#8f4917"/><stop offset="0.6" stop-color="#5d2f0f"/><stop offset="0.72" stop-color="#351b09"/><stop offset="0.83" stop-color="#180c04"/><stop offset="0.92" stop-color="#060301"/><stop offset="0.99"/></radialGradient><radialGradient id="radial-gradient-7" cx="1335.87" cy="450.12" r="142.64" gradientTransform="translate(650.67 1794.7) rotate(-101.51)" xlink:href="#radial-gradient-6"/><radialGradient id="radial-gradient-8" cx="1049.1" cy="242.85" r="116.16" gradientTransform="matrix(-0.94, 0.34, 0.34, 0.94, 1730.49, -134.3)" xlink:href="#radial-gradient-6"/><radialGradient id="radial-gradient-9" cx="1209.01" cy="392.3" r="97.07" gradientTransform="matrix(-1, -0.04, -0.04, 1, 2066.18, 162.25)" xlink:href="#radial-gradient-6"/><radialGradient id="radial-gradient-10" cx="667.41" cy="457.86" fx="551.7725939779425" fy="513.8585925207635" r="206.32" gradientTransform="translate(79.48 -501.38) rotate(44.91)" xlink:href="#radial-gradient"/><radialGradient id="radial-gradient-11" cx="578.03" cy="299.09" r="285.65" gradientTransform="matrix(-0.9, -0.44, -0.44, 0.9, 947.04, 316.38)" xlink:href="#radial-gradient-2"/><radialGradient id="radial-gradient-12" cx="577.97" cy="298.91" r="285.87" gradientTransform="matrix(-0.9, -0.44, -0.44, 0.9, 947.04, 316.38)" xlink:href="#radial-gradient-2"/><radialGradient id="radial-gradient-13" cx="669.07" cy="230.45" r="334.05" gradientTransform="matrix(-0.9, -0.44, -0.44, 0.9, 947.04, 316.38)" xlink:href="#radial-gradient-4"/><radialGradient id="radial-gradient-14" cx="900.8" cy="390.71" fx="818.2881401459963" fy="412.9785457628787" r="160.13" gradientTransform="matrix(-0.88, -0.48, -0.48, 0.88, 1260.27, 388.21)" xlink:href="#radial-gradient-5"/><radialGradient id="radial-gradient-15" cx="1149.8" cy="689.73" r="140.79" gradientTransform="matrix(0.18, -0.98, -0.98, -0.18, 724.71, 1563.42)" xlink:href="#radial-gradient-6"/><radialGradient id="radial-gradient-16" cx="1119.61" cy="845.94" r="142.66" gradientTransform="matrix(0.59, -0.81, -0.81, -0.59, 254.91, 1703.14)" xlink:href="#radial-gradient-6"/><radialGradient id="radial-gradient-17" cx="692.19" cy="515.64" r="116.18" gradientTransform="translate(79.48 -501.38) rotate(44.91)" xlink:href="#radial-gradient-6"/><radialGradient id="radial-gradient-18" cx="773.94" cy="507.33" r="97.08" gradientTransform="translate(-348.62 -373.17) rotate(22.21)" xlink:href="#radial-gradient-6"/></defs><title>ChickWingsOpen</title><g class="cls-1"><g id="Layer_1" data-name="Layer 1"><path class="cls-2" d="M579.36,519.46c10.69,35.11,26.16,48.87,26.16,48.87,10.65,21.85,26.64,35.18,42.08,41.74,19.71,8.41,14.76-4.42,14.76-4.42,14.75,15.09,51.9,33.91,58.1,24.3,1.79-2.8-1.38-13.06-3.42-16.29-.38-.56-.78-1.12-1.12-1.7,0,0,.49.65,1.12,1.7,14.31,17.49,57.82,31.64,65.41,20.19,4.84-7.29-2.65-20.27-2.65-20.27,24.43,7.38,56.54-.87,72.08-17.45,6.46-6.87-7.72-9.82-7.72-9.82,63.45-19,59.44-49.86,56.08-50.27-1.37-.18-14.53,8.58-14.53,8.58,21.85-16.42,24.76-51,23.09-75.78-1.41-21-11.1-10.65-11.1-10.65,5.32-19-10-13-10-13a21.87,21.87,0,0,0,2.45-20c-4.25-11.36-48.4-5.26-48.4-5.26,5.91-18.42,1.74-24.16-13.06-17.73-14.43,6.27-44.7,13.32-47.69,14.39-37.78,12.75-73.29,21-113.07,14.72a191.82,191.82,0,0,1-31.6-4.79C580,417.6,566.38,476.78,579.36,519.46Z" transform="translate(-102.23 -296.9)"/><path class="cls-3" d="M580.25,519.1c5.16,16.86,12.26,35.15,26.1,48.87,2.17,2.17,3.37,6.22,4.91,8.69a103.67,103.67,0,0,0,6.58,9.12,87.49,87.49,0,0,0,16,15.51c5.44,4.12,32.24,18.31,27.65,4.76-.16-.47,1.4-1.19,1.78-.75,11,12.24,27.23,20.6,40.66,24.73,2.83.87,13.84,4.49,15.91.18,2.95-6.07-2-13.73-4.65-17.81-.22-.31,1.23-1.23,1.5-.86,9.59,13.49,22.46,19.22,40.31,23.87,5.87,1.54,17.42,4.83,23.37.25,4.24-3.26,3.41-11.26,2.36-15.08A15.62,15.62,0,0,0,779,614c-.4-.4,1.25-.88,1.58-.77,16.61,5.73,37.83,1.55,54.59-6.23,5.61-2.61,11.65-5.89,15.59-10.28,5.36-6-1.91-9.29-7.28-9.95-.64-.08.62-.72.76-.76,20.27-5.75,42.11-15.38,52.86-34.05,2.3-4,4.39-9.12,4.25-14.08-.1-3.38-1.41-.9-3.59.72a48,48,0,0,1-11.72,6.3c-.26.1-1.7.16-1-.3,15.74-10.36,20.28-32.48,22.35-51.26,1.05-9.54,1.54-19.72,0-29.3-.79-4.75-4.2-11-9-5.8-.14.16-1.6.75-1.46.21,1.06-4.16,2.77-11.21-2.53-13.26-2-.79-4.62-.34-6.56.41-.13,0-1.24.26-.88-.23,3.84-5.16,4.48-12.14,2.94-18.24-1.68-6.58-10-7.36-15.7-7.89-10.78-1.1-22-.3-32.72,1.15-.12,0-.6,0-.5-.22,1.58-5.11,3.71-11.32,2-16.69-2.22-6.79-12.44-1.55-16.45.05-10.45,4.18-22.16,6.36-32.48,9.43-35.16,10.45-71.36,23.63-109.86,20.67-9-.69-17.62-1.86-25.82-2.81-8.41-.94-16.5-3.19-24.25-4a67.35,67.35,0,0,0-22.59,1.15c-24,5.66-35.44,29.94-36.39,52.79a119.76,119.76,0,0,0,5.17,38.38c.17.53-1.67,1.09-1.78.7-6.87-22.64-8.05-48.28,2.77-69.5,8.53-16.74,26.7-24.8,46-24.84,6.89,0,13.46,1.48,20.76,2.85,7.06,1.34,14,1.7,21.39,2.82,10,1.51,21,2.84,32.06,2.32,37.42-1.73,72.68-16,109.63-25.79a155.89,155.89,0,0,0,15.16-4.82c3.78-1.44,7.31-3.12,11.4-3.56,6.92-.73,7.9,5.51,7.27,10.92a49.92,49.92,0,0,1-1.78,7.72c-.52,1.78-1.73,1.65-.2,1.45,2.3-.28,4.63-.51,7-.72a159.65,159.65,0,0,1,23-.53c5.46.31,12.36.79,16.62,4.63,5.1,4.64,2.83,15.14.14,20.37a13.82,13.82,0,0,1-1.19,1.94c.08-.09-1.47,0,0-.45a15.5,15.5,0,0,1,5.15-.71c7.49.23,6.17,9.13,4.9,14.07-.48.08-1,.16-1.47.22,1.78-1.91,4.53-3.47,7.21-2.9,7,1.53,5.65,17.87,5.63,23.07a144.41,144.41,0,0,1-5.21,37.5c-2.84,10-7.31,20.39-15.46,26.81-1.46,1.14-1.92,1-3.68,1.68.89-.33,1.77-.75,2.64-1.14a50,50,0,0,0,9.83-6c1.15-.85,2.09-2.14,3.79-2.07,2.38.11.93,5.95.75,6.81-3.06,14.33-14.66,25.53-28.07,32.81a126.13,126.13,0,0,1-15.26,6.71c-2.89,1.11-5.84,2.09-8.77,3.09-1.59.54-3.19,1.07-4.82,1.58-.63.21-.83-.33.61-.06,2.94.54,8.28,2.2,8.09,5.66s-3.13,6.14-6,8.24C829,614.19,802.58,621,779,614l1.58-.77c4.77,4.94,6.81,14.62,2.06,21.51-3,4.29-10.92,4.11-15.2,3.71-23-2.15-40.79-10.11-52.28-26,.48-.29,1-.57,1.5-.86,2.87,4.43,7.4,12,4.2,18.54-1.56,3.17-6,3.07-8.5,2.94-15.6-.79-37.88-12.58-50.9-27l1.78-.75c1.74,5.24-1.7,8.61-8.12,7.85-15.66-1.87-30.86-16.9-38.94-26.76a104.52,104.52,0,0,1-7.59-10.76c-1.37-2.17-2.27-5.3-4.22-7.26A66.84,66.84,0,0,1,599,562c-9.9-12.88-16-27.42-20.51-42.2C578.32,519.3,580.13,518.73,580.25,519.1Z" transform="translate(-102.23 -296.9)"/><path class="cls-4" d="M887.69,445.23a77.32,77.32,0,0,0-40.57,23.18Z" transform="translate(-102.23 -296.9)"/><path class="cls-5" d="M887.57,445.61c-15.1,2.64-29.35,11.77-39.68,22.75-.32.33-1.93.56-1.51.13,10.76-11.46,25.67-20.89,41.43-23.64,1.14-.2.5.65-.24.76Z" transform="translate(-102.23 -296.9)"/><path class="cls-6" d="M898.73,452.66s-3.91,24.09-22.06,40.38Z" transform="translate(-102.23 -296.9)"/><path class="cls-5" d="M899.48,452.33a74.71,74.71,0,0,1-22.3,40.76c-.38.34-1.83.65-1-.1A73.57,73.57,0,0,0,898,453c.08-.51,1.62-1.07,1.52-.65Z" transform="translate(-102.23 -296.9)"/><path class="cls-5" d="M662.06,607.4a324.78,324.78,0,0,1-27.17-31.34c-.33-.46,1.6-1.22,1.86-.85a330,330,0,0,0,26.94,31.26c.38.38-1.23,1.33-1.63.93Z" transform="translate(-102.23 -296.9)"/><path class="cls-5" d="M605.78,570.11c-10.29-16.39-12.27-36.06-11.78-54.51,0-.52,1.8-1.27,1.79-.85-.45,18.44,1.41,38.15,11.48,54.61.24.39-1.2,1.23-1.49.75Z" transform="translate(-102.23 -296.9)"/><g class="cls-7"><path class="cls-8" d="M709.05,583.32c22.59,36.85,59.9,47.51,58.7,34.42-1.54-16.87-31.79-39-2.37-20.1,19,12.25,66.87,6.52,71.21-5.14.89-2.39-12.3-3.93-27.59-6.57s-6.56-3.88-6.56-3.88c67.51,2.1,82.07-33.47,67.16-28.87-20.29,6.26-33.77,3-33.77,3,48.59-10.63,67.83-54.91,66.86-70.78s-10.19-4-10.19-4c-1.59-.11-21.93,24.74-34.16,27.83s.82-6.37.82-6.37c40.91-40.68,41.85-68.84,5.43-41-32.35,24.68-48.27,25.69-36.24,18.49s10.35-11.83-2.56-10.73-36.56,1.86-3.71-8.63c18.59-5.93,21.63-7.48,37.67-17.89,8.63-5.62,17.63-9.88,19-16.34,4-10-29.35-3.47-44.95-1.2-45.63,6.64-44.06,3.51-20.64-1.88s27.42-21.44,11-16.43c-30.47,9.31-63.72,19.13-96,24.64,0-.11,0-.14-.06-.24,14.48-2.26,31.74-6.59,52.8-15.05,3-1.07,33.26-8.12,47.69-14.39,14.8-6.43,19-.69,13.06,17.73,0,0,44.15-6.1,48.4,5.26a21.87,21.87,0,0,1-2.45,20s15.33-6,10,13c0,0,9.69-10.36,11.1,10.65,1.67,24.8-1.24,59.36-23.09,75.78,0,0,14.21-8.69,14.53-8.58,4.12,1.18-.23,37.06-56.08,50.27,0,0,14.16,2.94,7.72,9.82-15.54,16.58-47.65,24.83-72.08,17.45,0,0,7,12.75,2.65,20.27-7.2,12.51-51.1-2.7-65.41-20.19-.63-1-1.12-1.7-1.12-1.7.34.58.74,1.14,1.12,1.7,2,3.23,5.86,14.16,3.42,16.29-8.86,7.69-43.35-9.21-58.1-24.3,0,0,4.95,12.83-14.76,4.42-15.44-6.56-31.43-19.89-42.08-41.74,0,0-15.47-13.76-26.16-48.87-13-42.68.6-101.86,57-92.94,0,0,21.55,3.62,33,4.61,0,0-28,.12,6.51,39.81s60.07,18.55,49.77,32.27-41.27.72-37.75,10.26,16.21,22,29.48,26.18,7,9.18-11.55,7.85S692.43,556.17,709.05,583.32Z" transform="translate(-102.23 -296.9)"/></g><path class="cls-9" d="M800.21,416.21S743.73,442,687.69,436.79c-38.62-3.57-22.63,10.2-.4,19.62,17.6,7.49,60.43,23.33,122.85,4,50.89-15.77,93.65-49.77-3.2-25.9-62.07,15.28-43.77,3.72-26.42-2.07S807,414.21,800.21,416.21Z" transform="translate(-102.23 -296.9)"/><path class="cls-10" d="M723.14,477.63s57.93,6.07,88.8-1.77c26.89-6.85,4.57,26.53-51.91,21.69C705,492.84,709.79,475.08,723.14,477.63Z" transform="translate(-102.23 -296.9)"/><path class="cls-11" d="M782.28,505s63.05-20.15,87.41-40.68c21.21-17.88,15.7,21.88-37.25,42.17C780.86,526.25,766.58,508.94,782.28,505Z" transform="translate(-102.23 -296.9)"/><path class="cls-12" d="M754.3,519.76s81.09,21.65,125.81-15.09S853,604,754.3,519.76Z" transform="translate(-102.23 -296.9)"/><path class="cls-13" d="M746.36,530.87s55.53,42.84,101.87,28.94S795.25,627.65,746.36,530.87Z" transform="translate(-102.23 -296.9)"/><path class="cls-14" d="M406.08,515.27c-24.39,27.41-44.19,33.43-44.19,33.43C343.08,564.1,323,569.52,306.2,569c-21.44-.6-11.57-10.19-11.57-10.19-19.71,7.53-61.31,9.08-62.92-2.24-.46-3.3,6.72-11.28,9.9-13.39.59-.34,1.18-.67,1.73-1,0,0-.69.38-1.73,1-20.33,9.93-65.75,4.57-67.84-9-1.34-8.62,10.88-17.28,10.88-17.28-25.27-3.53-51-24.47-58.17-46-3-8.94,11.12-5.69,11.12-5.69-49.67-43.85-33.12-70.14-29.9-69.13,1.32.42,9.59,13.87,9.59,13.87-13-24.05-1.14-56.65,10.75-78.48,10.07-18.5,14.52-5,14.52-5,3.11-19.44,14.52-7.59,14.52-7.59a21.78,21.78,0,0,1,6.18-19.21c8.59-8.54,46.15,15.47,46.15,15.47,2.34-19.2,8.53-22.67,19.28-10.63,10.47,11.74,35,30.77,37.29,33,29,27.38,57.8,49.69,96.54,60.67A193.28,193.28,0,0,0,393.23,407C448.14,422.5,435.72,481.93,406.08,515.27Z" transform="translate(-102.23 -296.9)"/><path class="cls-3" d="M405.43,514.57c-11.73,13.16-25.85,26.8-44.16,33.47-2.88,1.06-5.66,4.22-8.08,5.81a105.14,105.14,0,0,1-9.81,5.57,89.29,89.29,0,0,1-21,7.38c-6.68,1.48-36.95,3.14-27.12-7.25.35-.36-.77-1.65-1.31-1.42-15.13,6.49-33.33,7.31-47.27,5.46-2.94-.4-14.44-1.71-14.53-6.5-.12-6.76,7.54-11.64,11.68-14.21.33-.21-.61-1.67-1-1.44-14.35,8.24-28.44,8.08-46.6,4.83-6-1.07-17.84-2.91-21.33-9.55-2.49-4.73,1.63-11.65,4.15-14.67a15.71,15.71,0,0,1,6.15-4.48c.52-.21-.76-1.33-1.12-1.36-17.48-1.75-35-14.42-47-28.49-4-4.72-8.11-10.22-9.86-15.86-2.37-7.66,5.63-7.65,10.78-6,.61.21-.26-.9-.37-1-16-13.68-31.82-31.59-33.77-53-.42-4.57-.19-10.12,2-14.56,1.5-3,1.66-.24,3,2.14a46.81,46.81,0,0,0,8,10.62c.2.23,1.48.88,1,.17-10-16-4.83-38,1.12-55.9,3-9.13,6.86-18.57,12.3-26.59,2.7-4,8.41-8.23,10.6-1.52.07.2,1.15,1.36,1.24.81.78-4.25,2.18-11.34,7.84-11,2.15.13,4.34,1.65,5.79,3.14.11.1,1,.75.9.17-1.34-6.32,1-12.9,5-17.8,4.27-5.27,12.19-2.48,17.57-.61,10.25,3.53,20.12,8.95,29.22,14.74.12.06.53.3.56,0,.7-5.31,1.36-11.83,5.19-16,4.85-5.24,12,3.79,14.91,6.9,7.76,8.19,17.48,15.06,25.55,22.17,27.57,24.21,54.94,51.33,91.16,64.75,8.48,3.15,16.78,5.66,24.6,8.25,8.05,2.65,16.35,4,23.72,6.48a68.38,68.38,0,0,1,20,10.5c19.39,15.18,19.67,42,11,63.16a119.44,119.44,0,0,1-20.74,32.73c-.37.4,1.05,1.66,1.32,1.37,15.71-17.69,27.49-40.48,26.55-64.28-.74-18.78-13.86-33.7-31.35-41.79-6.27-2.89-12.86-4.3-20.07-6.1-7-1.75-13.37-4.31-20.6-6.38-9.72-2.82-20.26-6.22-30.1-11.31-33.25-17.23-59.31-44.95-88.79-69.31-4-3.34-8-6.93-11.74-10.71-2.84-2.88-5.33-5.89-8.86-8-6-3.56-9.49,1.69-11.17,6.86A50.08,50.08,0,0,0,209,312.7c-.29,1.83.87,2.21-.43,1.41-2-1.24-4-2.42-6-3.57a158.68,158.68,0,0,0-20.71-10.13c-5.09-2-11.55-4.44-17-2.73-6.58,2.06-8.9,12.57-8.65,18.44a14.37,14.37,0,0,0,.26,2.25c0-.11,1.34.63.22-.41a15.27,15.27,0,0,0-4.39-2.78c-6.91-2.94-9.42,5.7-10.32,10.72.41.28.81.54,1.24.81-.82-2.48-2.69-5-5.35-5.65-7-1.55-12.62,13.88-14.75,18.61a142.82,142.82,0,0,0-11,36.25c-1.6,10.25-1.89,21.56,2.83,30.81.84,1.63,1.3,1.72,2.64,3.06-.69-.67-1.3-1.4-1.94-2.14a51.53,51.53,0,0,1-6.45-9.53c-.66-1.24-1-2.81-2.56-3.46-2.2-.89-3.33,5-3.53,5.88-3.21,14.29,2.65,29.32,11.77,41.56a126.48,126.48,0,0,0,11.05,12.45c2.17,2.22,4.45,4.34,6.69,6.49,1.2,1.16,2.44,2.3,3.69,3.43.5.46.88.06-.51-.3-2.9-.73-8.43-1.45-9.72,1.76s.27,6.88,2,10c11.6,20.93,32.78,38.15,57.12,41.64-.37-.46-.75-.91-1.12-1.36-6.4,2.48-12.3,10.42-10.87,18.67.88,5.14,8.19,8.31,12.26,9.73,21.79,7.67,41.27,7.88,58.36-1.73-.32-.49-.65-1-1-1.44-4.46,2.85-11.72,7.77-11.57,15.11.09,3.51,4.16,5.29,6.48,6.21,14.51,5.8,39.68,4.4,57.52-3.21-.43-.48-.86-1-1.31-1.42-3.76,4-2.06,8.55,4.11,10.53,15,4.85,35.08-2.45,46.55-8A104.72,104.72,0,0,0,356,554.05c2.16-1.41,4.29-3.88,6.88-4.85a69.06,69.06,0,0,0,7.59-3.52c14.37-7.55,26-18.2,36.27-29.74C407.11,515.54,405.68,514.26,405.43,514.57Z" transform="translate(-102.23 -296.9)"/><path class="cls-15" d="M157.08,318.84a77.27,77.27,0,0,1,27.15,38.05Z" transform="translate(-102.23 -296.9)"/><path class="cls-5" d="M157,319.25c12.62,8.72,21.74,23,26.54,37.25.13.43,1.52,1.31,1.31.76-5-14.91-14.58-29.72-27.74-38.82-.95-.65-.72.39-.11.81Z" transform="translate(-102.23 -296.9)"/><path class="cls-16" d="M144,321s-6.53,23.54,3.15,45.92Z" transform="translate(-102.23 -296.9)"/><path class="cls-5" d="M143.4,320.36a74.87,74.87,0,0,0,3.2,46.36c.21.48,1.42,1.36,1,.34a73.76,73.76,0,0,1-3.08-45.46c.13-.51-1-1.65-1.11-1.24Z" transform="translate(-102.23 -296.9)"/><path class="cls-5" d="M294.18,560.54A325.68,325.68,0,0,0,332,543.44c.5-.26-.92-1.78-1.34-1.56A329.23,329.23,0,0,1,293.08,559c-.5.18.57,1.71,1.1,1.51Z" transform="translate(-102.23 -296.9)"/><path class="cls-5" d="M360.9,550.22c16.2-10.58,26.22-27.62,33.51-44.6.19-.47-1.1-1.89-1.27-1.51-7.31,16.95-17.23,34.07-33.29,44.8-.38.24.57,1.6,1,1.31Z" transform="translate(-102.23 -296.9)"/><g class="cls-7"><path class="cls-17" d="M261.56,519c-35.91,24-74.27,18.1-67.7,6.71,8.47-14.68,45.21-22.17,10.56-17.26C182,511.63,140.93,486.4,141.88,474c.19-2.53,12.82,1.58,27.81,5.58s7.6-.77,7.6-.77c-62.22-26.35-60.55-64.74-48.95-54.31,15.83,14.18,29.44,16.86,29.44,16.86-39.69-30-38.67-78.25-31.13-92.27s10.91.65,10.91.65c1.5.56,9.58,31.64,19.38,39.56s1.93-6.13,1.93-6.13c-20.14-54.06-9.22-80,12.24-39.54,19.06,35.95,33.09,43.52,25.19,32s-4.46-15.07,6.81-8.68,32.42,17,7-6.27c-14.41-13.18-16.51-15.86-26.72-32-5.5-8.71-11.9-16.37-10.46-22.8.56-10.73,28.11,9.11,41.34,17.72,38.67,25.1,38.53,21.6,19.53,6.93s-15.92-30.95-3.12-19.54c23.76,21.2,49.86,44,76.85,62.51l.14-.2c-12.2-8.09-26.07-19.25-41.66-35.74-2.28-2.24-26.82-21.27-37.29-33-10.75-12-16.94-8.57-19.28,10.63,0,0-37.56-24-46.15-15.47a21.78,21.78,0,0,0-6.18,19.21s-11.41-11.85-14.52,7.59c0,0-4.45-13.46-14.52,5C116.15,353.3,104.32,385.9,117.29,410c0,0-9.26-13.83-9.59-13.87-4.24-.65-15.3,33.77,29.9,69.13,0,0-14.09-3.25-11.12,5.69,7.17,21.54,32.9,42.48,58.17,46,0,0-11.67,8.66-10.88,17.28,1.29,14.39,47.51,18.94,67.84,9,1-.66,1.73-1,1.73-1-.55.37-1.14.7-1.73,1-3.18,2.11-11.24,10.43-9.9,13.39,4.83,10.7,43.21,9.77,62.92,2.24,0,0-9.87,9.59,11.57,10.19,16.76.5,36.88-4.92,55.69-20.32,0,0,19.8-6,44.19-33.43,29.64-33.34,42.06-92.77-12.85-108.25,0,0-21.1-5.73-32-9.63,0,0,25.34,11.79-22.57,33.43s-62.32-8.31-58.71,8.47,37.19,17.92,30,25.13-23.94,13.21-37.72,11.43-10.19,5.43,7.19,12S288,501.31,261.56,519Z" transform="translate(-102.23 -296.9)"/></g><path class="cls-18" d="M248.69,329.1s40.51,47,93.57,65.75c36.58,12.93,16.29,18.73-7.84,18-19.1-.56-64.64-4.09-113.25-47.74-39.63-35.62-64.24-84.4,13.75-22.2,50,39.86,38.18,21.7,24.85,9.19S243.33,324.44,248.69,329.1Z" transform="translate(-102.23 -296.9)"/><path class="cls-19" d="M293,417.11s-55.16-18.71-79.91-38.76c-21.58-17.47-15.28,22.19,38.07,41.44C303.11,438.54,306.18,420.39,293,417.11Z" transform="translate(-102.23 -296.9)"/><path class="cls-20" d="M227.83,417.21S179,372.52,165.45,343.7c-11.79-25.13-23.39,13.31,16.18,53.89C220.23,437.13,240.43,427.38,227.83,417.21Z" transform="translate(-102.23 -296.9)"/><path class="cls-21" d="M247.06,442.34s-82.71-14.25-108-66.34S122.17,477.58,247.06,442.34Z" transform="translate(-102.23 -296.9)"/><path class="cls-22" d="M249.64,455.76S181.28,471.45,145,439.44,164.73,523.21,249.64,455.76Z" transform="translate(-102.23 -296.9)"/></g></g></svg>